<svg width="463" height="184" viewBox="0 0 463 184" fill="none" xmlns="http://www.w3.org/2000/svg">
<path fill-rule="evenodd" clip-rule="evenodd" d="M117.178 59.8419H75.9688V42.3594H134.66V101.05H117.178V59.8419Z" fill="#9DC4FF"/>
<path fill-rule="evenodd" clip-rule="evenodd" d="M84.9852 94.6324C82.3156 92.8486 79.177 91.8965 75.9662 91.8965V74.4141C82.6347 74.4141 89.1534 76.3915 94.698 80.0963C100.243 83.8011 104.564 89.0668 107.116 95.2277C109.668 101.389 110.336 108.168 109.035 114.708C107.734 121.248 104.523 127.256 99.8072 131.971C95.0919 136.687 89.0842 139.898 82.5439 141.199C76.0036 142.5 69.2244 141.832 63.0635 139.28C56.9027 136.728 51.637 132.407 47.9322 126.862C44.2274 121.317 42.25 114.799 42.25 108.13H59.7325C59.7325 111.341 60.6846 114.48 62.4684 117.149C64.2521 119.819 66.7875 121.9 69.7538 123.128C72.7202 124.357 75.9842 124.679 79.1333 124.052C82.2823 123.426 85.1749 121.88 87.4452 119.609C89.7155 117.339 91.2617 114.446 91.8881 111.297C92.5144 108.148 92.193 104.884 90.9643 101.918C89.7356 98.9516 87.6549 96.4162 84.9852 94.6324Z" fill="#9DC4FF"/>
<path d="M162.133 128.146V54.7969H189.272C195.14 54.7969 199.995 55.7749 203.837 57.7309C207.679 59.6868 210.543 62.3763 212.429 65.7992C214.315 69.2221 215.258 73.0642 215.258 77.3254C215.258 81.377 214.35 85.1142 212.534 88.5372C210.717 91.8902 207.888 94.6146 204.046 96.7103C200.204 98.7361 195.279 99.749 189.272 99.749H175.545V128.146H162.133ZM175.545 88.8515H188.433C193.114 88.8515 196.467 87.8386 198.493 85.8128C200.588 83.7171 201.636 80.888 201.636 77.3254C201.636 73.6929 200.588 70.8637 198.493 68.8379C196.467 66.7422 193.114 65.6944 188.433 65.6944H175.545V88.8515Z" fill="#9DC4FF"/>
<path d="M242.82 129.401C237.581 129.401 232.936 128.283 228.884 126.048C224.832 123.813 221.654 120.669 219.349 116.617C217.044 112.566 215.891 107.886 215.891 102.577C215.891 97.1981 217.009 92.4129 219.244 88.2216C221.549 84.0303 224.693 80.782 228.675 78.4768C232.726 76.1017 237.476 74.9141 242.925 74.9141C248.025 74.9141 252.53 76.0318 256.442 78.2672C260.354 80.5026 263.393 83.5762 265.558 87.4881C267.794 91.3302 268.911 95.6263 268.911 100.376C268.911 101.144 268.876 101.948 268.807 102.786C268.807 103.624 268.772 104.498 268.702 105.406H229.198C229.478 109.457 230.875 112.636 233.39 114.941C235.974 117.246 239.083 118.399 242.716 118.399C245.44 118.399 247.71 117.805 249.526 116.617C251.413 115.36 252.81 113.753 253.718 111.797H267.34C266.362 115.081 264.72 118.084 262.415 120.809C260.179 123.463 257.385 125.559 254.032 127.096C250.749 128.633 247.012 129.401 242.82 129.401ZM242.925 85.8116C239.642 85.8116 236.743 86.7546 234.228 88.6407C231.713 90.457 230.107 93.2512 229.408 97.0234H255.29C255.08 93.6005 253.823 90.8761 251.517 88.8503C249.212 86.8245 246.348 85.8116 242.925 85.8116Z" fill="#9DC4FF"/>
<path d="M274.945 128.144V76.1715H286.785L287.833 84.9733C289.44 81.8997 291.745 79.4547 294.749 77.6385C297.822 75.8223 301.42 74.9141 305.541 74.9141C311.968 74.9141 316.963 76.9399 320.525 80.9916C324.088 85.0432 325.869 90.9809 325.869 98.8047V128.144H312.457V100.062C312.457 95.5914 311.549 92.1685 309.733 89.7934C307.917 87.4183 305.087 86.2307 301.245 86.2307C297.473 86.2307 294.365 87.558 291.92 90.2125C289.545 92.867 288.357 96.5694 288.357 101.319V128.144H274.945Z" fill="#9DC4FF"/>
<path d="M356.617 128.143C351.168 128.143 346.803 126.815 343.52 124.161C340.237 121.506 338.594 116.791 338.594 110.015V87.3823H329.688V76.1705H338.594L340.166 62.2344H352.007V76.1705H366.047V87.3823H352.007V110.12C352.007 112.635 352.53 114.381 353.578 115.359C354.696 116.267 356.582 116.721 359.236 116.721H365.733V128.143H356.617Z" fill="#9DC4FF"/>
<path d="M390.24 129.401C385.769 129.401 382.101 128.702 379.237 127.305C376.373 125.838 374.243 123.917 372.845 121.542C371.448 119.167 370.75 116.548 370.75 113.684C370.75 108.864 372.636 104.952 376.408 101.948C380.18 98.9444 385.839 97.4425 393.383 97.4425H406.586V96.1851C406.586 92.6225 405.573 90.0029 403.547 88.3264C401.521 86.6499 399.006 85.8116 396.003 85.8116C393.278 85.8116 390.903 86.4752 388.877 87.8025C386.852 89.0599 385.594 90.946 385.105 93.4608H372.007C372.356 89.6886 373.614 86.4054 375.779 83.6112C378.015 80.8169 380.879 78.6863 384.372 77.2194C387.864 75.6825 391.776 74.9141 396.107 74.9141C403.512 74.9141 409.345 76.7653 413.606 80.4677C417.867 84.17 419.998 89.4092 419.998 96.1851V128.144H408.577L407.319 119.761C405.782 122.555 403.617 124.86 400.823 126.677C398.098 128.493 394.571 129.401 390.24 129.401ZM393.278 118.923C397.12 118.923 400.089 117.665 402.185 115.151C404.35 112.636 405.713 109.527 406.271 105.825H394.85C391.287 105.825 388.738 106.488 387.201 107.816C385.664 109.073 384.896 110.645 384.896 112.531C384.896 114.557 385.664 116.129 387.201 117.246C388.738 118.364 390.763 118.923 393.278 118.923Z" fill="#9DC4FF"/>
</svg>
