<svg width="331" height="156" viewBox="0 0 331 156" fill="none" xmlns="http://www.w3.org/2000/svg">
<path d="M125.992 106.726C125.992 107.831 126.888 108.726 127.992 108.726H135.408C136.512 108.726 137.408 107.831 137.408 106.726V49.0312C137.408 47.9267 136.512 47.0312 135.408 47.0312H127.992C126.888 47.0312 125.992 47.9267 125.992 49.0312V106.726Z" fill="#9DC4FF"/>
<path fill-rule="evenodd" clip-rule="evenodd" d="M154.185 106.922C157.627 108.964 161.628 109.986 166.188 109.986C170.721 109.986 174.708 108.978 178.15 106.964C181.619 104.921 184.319 102.109 186.25 98.5281C188.208 94.9188 189.188 90.7638 189.188 86.0632C189.188 81.3906 188.222 77.2636 186.292 73.6822C184.361 70.0728 181.661 67.2469 178.192 65.2044C174.75 63.1619 170.749 62.1406 166.188 62.1406C161.712 62.1406 157.753 63.1479 154.311 65.1624C150.87 67.177 148.169 69.9889 146.211 73.5983C144.252 77.1797 143.273 81.3347 143.273 86.0632C143.273 90.7358 144.224 94.8768 146.127 98.4862C148.058 102.067 150.744 104.879 154.185 106.922ZM174.372 95.6323C172.582 98.0945 169.854 99.3256 166.188 99.3256C162.635 99.3256 159.935 98.1364 158.088 95.7582C156.27 93.3519 155.36 90.1203 155.36 86.0632C155.36 83.4331 155.738 81.1248 156.493 79.1383C157.277 77.1517 158.466 75.5988 160.061 74.4796C161.656 73.3605 163.698 72.8009 166.188 72.8009C169.798 72.8009 172.512 74.004 174.33 76.4102C176.177 78.8165 177.1 82.0341 177.1 86.0632C177.1 89.9524 176.191 93.1421 174.372 95.6323Z" fill="#9DC4FF"/>
<path fill-rule="evenodd" clip-rule="evenodd" d="M206.812 109.986C203.566 109.986 200.81 109.37 198.544 108.139C196.306 106.88 194.599 105.215 193.424 103.144C192.276 101.046 191.703 98.738 191.703 96.2198C191.703 94.1213 192.025 92.2047 192.668 90.47C193.312 88.7353 194.347 87.2104 195.774 85.8953C197.229 84.5523 199.173 83.4331 201.608 82.5378C203.286 81.9222 205.287 81.3766 207.609 80.901C209.932 80.4253 212.562 79.9776 215.5 79.5579C217.229 79.2945 219.06 79.0164 220.992 78.7238C220.775 76.8551 220.162 75.4264 219.151 74.4377C217.864 73.1786 215.709 72.549 212.688 72.549C211.009 72.549 209.26 72.9548 207.441 73.7662C205.623 74.5776 204.35 76.0185 203.622 78.089L193.298 74.8154C194.445 71.0661 196.599 68.0164 199.761 65.6661C202.923 63.3158 207.232 62.1406 212.688 62.1406C216.689 62.1406 220.242 62.7562 223.348 63.9873C226.454 65.2184 228.804 67.3448 230.399 70.3666C231.294 72.0454 231.826 73.7242 231.994 75.403C232.161 77.0817 232.245 78.9564 232.245 81.0269V108.726H222.257V103.162C220.453 105.287 218.537 106.89 216.507 107.971C213.961 109.314 210.729 109.986 206.812 109.986ZM209.246 101.004C211.345 101.004 213.107 100.64 214.534 99.9131C215.989 99.1577 217.136 98.3043 217.976 97.353C218.843 96.4017 219.431 95.6043 219.738 94.9607C220.326 93.7296 220.662 92.3027 220.746 90.6799C220.814 89.674 220.861 88.7721 220.888 87.974C219.008 88.2951 217.394 88.5815 216.045 88.8332C213.947 89.1969 212.254 89.5327 210.967 89.8405C209.68 90.1482 208.547 90.484 207.567 90.8477C206.448 91.2954 205.539 91.785 204.839 92.3167C204.168 92.8203 203.664 93.3799 203.328 93.9954C203.021 94.611 202.867 95.2965 202.867 96.0519C202.867 97.0872 203.119 97.9825 203.622 98.738C204.154 99.4655 204.895 100.025 205.847 100.416C206.798 100.808 207.931 101.004 209.246 101.004Z" fill="#9DC4FF"/>
<path fill-rule="evenodd" clip-rule="evenodd" d="M246.392 106.837C249.525 108.935 253.177 109.985 257.346 109.985C261.85 109.985 265.614 108.935 268.636 106.837C268.966 106.607 269.288 106.368 269.601 106.12V108.725H279.674V48.2891H268.174V64.8599C265.353 63.046 261.939 62.139 257.933 62.139C253.596 62.139 249.819 63.1743 246.602 65.2448C243.384 67.3153 240.88 70.1552 239.089 73.7646C237.326 77.346 236.445 81.445 236.445 86.0616C236.445 90.5943 237.312 94.6654 239.047 98.2747C240.81 101.884 243.258 104.738 246.392 106.837ZM269.601 86.0616C269.601 88.8036 269.265 91.2099 268.594 93.2804C267.922 95.3509 266.817 96.9597 265.278 98.1068C263.767 99.254 261.739 99.8276 259.192 99.8276C256.73 99.8276 254.716 99.212 253.149 97.9809C251.582 96.7498 250.421 95.099 249.665 93.0285C248.91 90.9301 248.532 88.6078 248.532 86.0616C248.532 83.5434 248.924 81.2491 249.707 79.1786C250.491 77.0802 251.694 75.4154 253.317 74.1843C254.967 72.9252 257.066 72.2956 259.612 72.2956C261.99 72.2956 263.907 72.8692 265.362 74.0164C266.845 75.1635 267.922 76.7724 268.594 78.8429C269.265 80.9134 269.601 83.3196 269.601 86.0616Z" fill="#9DC4FF"/>
<path fill-rule="evenodd" clip-rule="evenodd" d="M51.9212 44.9893C51.0703 46.6593 51.0703 48.8454 51.0703 53.2177V102.959C51.0703 107.331 51.0703 109.517 51.9212 111.187C52.6697 112.656 53.864 113.851 55.333 114.599C57.003 115.45 59.1891 115.45 63.5614 115.45H90.9972C95.3695 115.45 97.5556 115.45 99.2256 114.599C100.695 113.851 101.889 112.656 102.637 111.187C103.488 109.517 103.488 107.331 103.488 102.959V47.8644C103.488 45.3659 103.488 44.1167 103.002 43.1624C102.574 42.323 101.892 41.6406 101.052 41.2129C100.098 40.7266 98.8489 40.7266 96.3505 40.7266H63.5614C59.1891 40.7266 57.003 40.7266 55.333 41.5775C53.864 42.326 52.6697 43.5203 51.9212 44.9893ZM79.6985 74.0431C78.5192 75.7195 76.0408 75.7195 74.8615 74.0431L59.4246 52.0995C58.041 50.1327 59.4433 47.4185 61.8431 47.4185H92.7169C95.1167 47.4185 96.519 50.1327 95.1353 52.0995L79.6985 74.0431ZM74.8619 82.1343C76.0411 80.458 78.5196 80.458 79.6988 82.1343L95.1357 104.078C96.5193 106.045 95.117 108.759 92.7172 108.759H61.8435C59.4437 108.759 58.0414 106.045 59.425 104.078L74.8619 82.1343Z" fill="#9DC4FF"/>
</svg>
