<svg width="513" height="205" viewBox="0 0 513 205" fill="none" xmlns="http://www.w3.org/2000/svg">
<path fill-rule="evenodd" clip-rule="evenodd" d="M153.971 53.0463C157.916 54.6808 161.5 57.0767 164.519 60.0968C167.539 63.1156 169.935 66.6998 171.57 70.6448C173.204 74.5897 174.045 78.8181 174.045 83.0882C174.045 87.3584 173.204 91.5868 171.57 95.5317C169.935 99.4766 167.539 103.061 164.519 106.08L119.42 151.178C115.472 155.127 109.07 155.127 105.122 151.178L60.0233 106.08C53.9257 99.9819 50.5 91.7117 50.5 83.0882C50.5 74.4648 53.9257 66.1945 60.0233 60.0968C66.121 53.9991 74.3913 50.5735 83.0147 50.5735C91.6382 50.5735 99.9084 53.9991 106.006 60.0968L112.271 66.3619L118.536 60.0968C121.555 57.0767 125.139 54.6808 129.084 53.0463C133.029 51.4117 137.257 50.5703 141.528 50.5703C145.798 50.5703 150.026 51.4117 153.971 53.0463ZM95.2909 85.9245C90.6799 92.8398 87.2588 99.7972 87.2588 107.343C87.2588 118.459 93.6235 128.91 102.749 132.964L105.869 128.524C109.636 124.22 115.745 124.218 119.514 128.524L122.063 131.436C131.188 127.381 136.788 117.875 136.788 107.341C136.788 94.2573 126.044 85.7221 126.044 85.7221C124.965 84.6996 124.067 85.1086 124.063 86.5801C124.063 86.5801 124.74 99.3108 118.047 99.3108C114.638 99.3108 114.577 96.0633 114.489 91.3424C114.377 85.3472 114.221 76.9758 107.106 69.8614C104.303 67.4585 103.177 66.4934 102.659 66.7509C101.447 67.3542 103.572 74.6671 95.2909 85.9245ZM124.837 75.1556C122.425 71.4347 117.747 69.2937 115.683 69.6513C114.79 69.8055 115.056 70.0993 115.744 70.8609C116.648 71.8615 118.282 73.6695 118.978 77.0287C120.206 82.942 128.205 80.5311 124.837 75.1556Z" fill="#9DC4FF"/>
<path d="M260.298 87.3153C258.567 84.1422 256.187 81.7263 253.159 80.0676C250.13 78.4089 246.596 77.5796 242.557 77.5796C238.086 77.5796 234.12 78.5892 230.658 80.6085C227.196 82.6278 224.492 85.5124 222.545 89.2625C220.598 93.0126 219.624 97.3396 219.624 102.244C219.624 107.292 220.598 111.691 222.545 115.441C224.564 119.191 227.341 122.076 230.874 124.095C234.408 126.114 238.519 127.124 243.206 127.124C248.976 127.124 253.699 125.609 257.377 122.581C261.055 119.479 263.471 115.189 264.625 109.708H238.663V98.1329H279.553V111.33C278.544 116.595 276.38 121.463 273.063 125.934C269.745 130.405 265.454 134.011 260.19 136.751C254.997 139.42 249.156 140.754 242.665 140.754C235.382 140.754 228.783 139.131 222.869 135.886C217.028 132.569 212.412 127.989 209.023 122.148C205.706 116.306 204.047 109.672 204.047 102.244C204.047 94.8155 205.706 88.1808 209.023 82.3393C212.412 76.4257 217.028 71.8463 222.869 68.601C228.783 65.2836 235.346 63.625 242.557 63.625C251.067 63.625 258.459 65.7163 264.733 69.8991C271.007 74.0098 275.334 79.8152 277.714 87.3153H260.298Z" fill="#9DC4FF"/>
<path d="M341.057 108.843C341.057 111.007 340.913 112.954 340.625 114.685H296.814C297.174 119.012 298.689 122.401 301.357 124.853C304.025 127.305 307.307 128.531 311.201 128.531C316.826 128.531 320.829 126.115 323.208 121.283H339.543C337.812 127.053 334.495 131.812 329.591 135.563C324.687 139.241 318.665 141.079 311.526 141.079C305.756 141.079 300.564 139.817 295.948 137.293C291.405 134.697 287.835 131.055 285.239 126.368C282.715 121.68 281.453 116.271 281.453 110.141C281.453 103.939 282.715 98.4944 285.239 93.8068C287.763 89.1192 291.297 85.5133 295.84 82.9892C300.383 80.4651 305.612 79.2031 311.526 79.2031C317.223 79.2031 322.307 80.4291 326.778 82.8811C331.322 85.333 334.819 88.8307 337.271 93.3741C339.795 97.8453 341.057 103.002 341.057 108.843ZM325.372 104.516C325.3 100.622 323.894 97.5208 321.153 95.2131C318.413 92.8332 315.059 91.6433 311.093 91.6433C307.343 91.6433 304.17 92.7971 301.573 95.1049C299.049 97.3405 297.499 100.478 296.922 104.516H325.372Z" fill="#9DC4FF"/>
<path d="M379.913 79.3125C387.052 79.3125 392.822 81.5842 397.221 86.1275C401.62 90.5988 403.819 96.8729 403.819 104.95V140.107H388.675V107.005C388.675 102.246 387.485 98.6037 385.105 96.0797C382.725 93.4834 379.48 92.1853 375.369 92.1853C371.187 92.1853 367.869 93.4834 365.417 96.0797C363.037 98.6037 361.847 102.246 361.847 107.005V140.107H346.703V80.1779H361.847V87.642C363.867 85.0458 366.427 83.0265 369.528 81.5842C372.701 80.0697 376.163 79.3125 379.913 79.3125Z" fill="#9DC4FF"/>
<path d="M428.282 127.343H462.249V140.108H410.758V128.425L444.509 77.3663H410.758V64.6016H462.249V76.2846L428.282 127.343Z" fill="#9DC4FF"/>
</svg>
