<svg width="535" height="209" viewBox="0 0 535 209" fill="none" xmlns="http://www.w3.org/2000/svg">
<path d="M186.291 116.808H170.308L167.663 124.455H159.211L173.642 84.2656H183.014L197.446 124.455H188.936L186.291 116.808ZM184.107 110.369L178.3 93.5798L172.492 110.369H184.107Z" fill="#9DC4FF"/>
<path d="M230.607 92.6094V124.462H222.5V120.438C221.465 121.818 220.105 122.91 218.418 123.715C216.77 124.482 214.968 124.865 213.014 124.865C210.522 124.865 208.318 124.347 206.402 123.312C204.485 122.239 202.971 120.687 201.859 118.655C200.786 116.585 200.25 114.132 200.25 111.296V92.6094H208.299V110.146C208.299 112.676 208.931 114.631 210.196 116.011C211.461 117.352 213.186 118.023 215.371 118.023C217.594 118.023 219.338 117.352 220.603 116.011C221.868 114.631 222.5 112.676 222.5 110.146V92.6094H230.607Z" fill="#9DC4FF"/>
<path d="M245.62 99.2155V114.625C245.62 115.698 245.869 116.484 246.368 116.982C246.904 117.442 247.786 117.672 249.012 117.672H252.75V124.456H247.69C240.906 124.456 237.513 121.16 237.513 114.567V99.2155H233.719V92.6035H237.513V84.7266H245.62V92.6035H252.75V99.2155H245.62Z" fill="#9DC4FF"/>
<path d="M270.383 124.974C267.317 124.974 264.557 124.303 262.104 122.961C259.651 121.582 257.715 119.646 256.297 117.154C254.917 114.663 254.227 111.788 254.227 108.53C254.227 105.272 254.936 102.397 256.354 99.9053C257.811 97.4138 259.785 95.4973 262.276 94.1557C264.768 92.7758 267.547 92.0859 270.613 92.0859C273.68 92.0859 276.459 92.7758 278.95 94.1557C281.442 95.4973 283.396 97.4138 284.815 99.9053C286.271 102.397 286.999 105.272 286.999 108.53C286.999 111.788 286.252 114.663 284.757 117.154C283.301 119.646 281.307 121.582 278.778 122.961C276.286 124.303 273.488 124.974 270.383 124.974ZM270.383 117.959C271.84 117.959 273.201 117.614 274.465 116.924C275.769 116.196 276.804 115.123 277.57 113.705C278.337 112.286 278.72 110.562 278.72 108.53C278.72 105.502 277.915 103.183 276.305 101.573C274.734 99.9244 272.798 99.1003 270.498 99.1003C268.198 99.1003 266.263 99.9244 264.691 101.573C263.158 103.183 262.391 105.502 262.391 108.53C262.391 111.558 263.139 113.896 264.634 115.545C266.167 117.154 268.083 117.959 270.383 117.959Z" fill="#9DC4FF"/>
<path d="M330.159 92.1484C334.069 92.1484 337.212 93.3558 339.588 95.7706C342.003 98.1471 343.211 101.482 343.211 105.775V124.461H335.161V106.868C335.161 104.376 334.529 102.479 333.264 101.176C331.999 99.8336 330.274 99.1628 328.089 99.1628C325.904 99.1628 324.16 99.8336 322.857 101.176C321.592 102.479 320.96 104.376 320.96 106.868V124.461H312.91V106.868C312.91 104.376 312.278 102.479 311.013 101.176C309.748 99.8336 308.023 99.1628 305.839 99.1628C303.615 99.1628 301.852 99.8336 300.549 101.176C299.284 102.479 298.652 104.376 298.652 106.868V124.461H290.602V92.6083H298.652V96.4605C299.686 95.119 301.009 94.0649 302.619 93.2983C304.267 92.5317 306.068 92.1484 308.023 92.1484C310.515 92.1484 312.738 92.685 314.693 93.7582C316.648 94.7932 318.162 96.288 319.235 98.2429C320.27 96.403 321.765 94.9273 323.72 93.8157C325.713 92.7041 327.859 92.1484 330.159 92.1484Z" fill="#9DC4FF"/>
<path d="M346.484 108.415C346.484 105.195 347.117 102.34 348.382 99.8478C349.685 97.3563 351.429 95.4398 353.614 94.0982C355.837 92.7566 358.309 92.0859 361.031 92.0859C363.407 92.0859 365.477 92.565 367.24 93.5232C369.042 94.4815 370.479 95.6889 371.552 97.1455V92.6033H379.659V124.456H371.552V119.799C370.518 121.294 369.08 122.54 367.24 123.536C365.439 124.495 363.35 124.974 360.973 124.974C358.29 124.974 355.837 124.284 353.614 122.904C351.429 121.524 349.685 119.588 348.382 117.097C347.117 114.567 346.484 111.673 346.484 108.415ZM371.552 108.53C371.552 106.575 371.169 104.908 370.403 103.528C369.636 102.11 368.601 101.037 367.298 100.308C365.995 99.5411 364.595 99.1578 363.101 99.1578C361.606 99.1578 360.226 99.522 358.961 100.251C357.696 100.979 356.661 102.052 355.856 103.47C355.09 104.85 354.706 106.499 354.706 108.415C354.706 110.332 355.09 112.018 355.856 113.475C356.661 114.893 357.696 115.985 358.961 116.752C360.264 117.519 361.644 117.902 363.101 117.902C364.595 117.902 365.995 117.538 367.298 116.809C368.601 116.043 369.636 114.97 370.403 113.59C371.169 112.171 371.552 110.485 371.552 108.53Z" fill="#9DC4FF"/>
<path d="M394.59 99.2155V114.625C394.59 115.698 394.839 116.484 395.337 116.982C395.874 117.442 396.756 117.672 397.982 117.672H401.719V124.456H396.66C389.875 124.456 386.483 121.16 386.483 114.567V99.2155H382.688V92.6035H386.483V84.7266H394.59V92.6035H401.719V99.2155H394.59Z" fill="#9DC4FF"/>
<path d="M409.296 88.8121C407.878 88.8121 406.69 88.3713 405.732 87.4897C404.812 86.5698 404.352 85.439 404.352 84.0975C404.352 82.7559 404.812 81.6443 405.732 80.7627C406.69 79.8428 407.878 79.3828 409.296 79.3828C410.714 79.3828 411.884 79.8428 412.803 80.7627C413.762 81.6443 414.241 82.7559 414.241 84.0975C414.241 85.439 413.762 86.5698 412.803 87.4897C411.884 88.3713 410.714 88.8121 409.296 88.8121ZM413.263 92.6068V124.459H405.214V92.6068H413.263Z" fill="#9DC4FF"/>
<path d="M433.054 124.974C429.988 124.974 427.228 124.303 424.775 122.961C422.322 121.582 420.386 119.646 418.968 117.154C417.588 114.663 416.898 111.788 416.898 108.53C416.898 105.272 417.607 102.397 419.025 99.9053C420.482 97.4138 422.456 95.4973 424.947 94.1557C427.439 92.7758 430.218 92.0859 433.284 92.0859C436.351 92.0859 439.13 92.7758 441.621 94.1557C444.113 95.4973 446.068 97.4138 447.486 99.9053C448.942 102.397 449.671 105.272 449.671 108.53C449.671 111.788 448.923 114.663 447.428 117.154C445.972 119.646 443.979 121.582 441.449 122.961C438.957 124.303 436.159 124.974 433.054 124.974ZM433.054 117.959C434.511 117.959 435.872 117.614 437.137 116.924C438.44 116.196 439.475 115.123 440.241 113.705C441.008 112.286 441.391 110.562 441.391 108.53C441.391 105.502 440.586 103.183 438.976 101.573C437.405 99.9244 435.469 99.1003 433.169 99.1003C430.87 99.1003 428.934 99.9244 427.362 101.573C425.829 103.183 425.062 105.502 425.062 108.53C425.062 111.558 425.81 113.896 427.305 115.545C428.838 117.154 430.755 117.959 433.054 117.959Z" fill="#9DC4FF"/>
<path d="M470.924 92.1484C474.719 92.1484 477.786 93.3558 480.124 95.7706C482.462 98.1471 483.631 101.482 483.631 105.775V124.461H475.582V106.868C475.582 104.338 474.949 102.402 473.684 101.061C472.419 99.6803 470.694 98.9903 468.51 98.9903C466.286 98.9903 464.523 99.6803 463.22 101.061C461.955 102.402 461.323 104.338 461.323 106.868V124.461H453.273V92.6083H461.323V96.5755C462.396 95.1956 463.757 94.1224 465.405 93.3558C467.091 92.5508 468.931 92.1484 470.924 92.1484Z" fill="#9DC4FF"/>
<path d="M93.253 91.7683V82.0843C81.4431 82.4907 71.9939 92.1926 71.9939 104.101V105.643H51.3047V104.101C51.3047 80.7657 70.0155 61.8001 93.253 61.3887V50.9141L128.711 71.7266L93.253 91.7683Z" fill="#9DC4FF"/>
<path d="M111.427 104.102V105.644C111.427 117.553 101.979 127.254 90.1692 127.661V117.978L54.7109 138.019L90.1692 158.832V148.357C113.406 147.945 132.117 128.98 132.117 105.644V104.102H111.427Z" fill="#9DC4FF"/>
</svg>
