<svg width="410" height="185" viewBox="0 0 410 185" fill="none" xmlns="http://www.w3.org/2000/svg">
<path d="M224.242 114.06V64.1172H233.292V114.06H224.242Z" fill="#9DC4FF"/>
<path d="M147.648 65.5L166.782 114.062H174.242L193.584 65.5H183.568L170.625 99.5949L157.802 65.5H147.648Z" fill="#9DC4FF"/>
<path fill-rule="evenodd" clip-rule="evenodd" d="M194.936 112.473C197.653 113.993 200.693 114.752 204.055 114.752C207.416 114.752 210.433 113.993 213.104 112.473C215.821 110.907 217.962 108.812 219.528 106.187C221.094 103.516 221.877 100.546 221.877 97.2759C221.877 94.0063 221.094 91.082 219.528 88.5031C217.962 85.8782 215.821 83.8058 213.104 82.2861C210.433 80.7204 207.393 79.9375 203.986 79.9375C200.67 79.9375 197.653 80.7204 194.936 82.2861C192.219 83.8058 190.078 85.8782 188.512 88.5031C186.946 91.082 186.164 94.0063 186.164 97.2759C186.164 100.546 186.946 103.516 188.512 106.187C190.124 108.812 192.265 110.907 194.936 112.473ZM208.476 105.22C207.186 105.957 205.689 106.325 203.986 106.325C202.328 106.325 200.854 105.957 199.565 105.22C198.275 104.437 197.262 103.378 196.525 102.042C195.788 100.661 195.42 99.095 195.42 97.345C195.42 95.5951 195.788 94.0523 196.525 92.7168C197.262 91.3813 198.275 90.3452 199.565 89.6083C200.854 88.8255 202.328 88.434 203.986 88.434C205.689 88.434 207.186 88.8255 208.476 89.6083C209.765 90.3452 210.778 91.3813 211.515 92.7168C212.252 94.0523 212.62 95.5951 212.62 97.345C212.62 99.095 212.252 100.661 211.515 102.042C210.824 103.378 209.811 104.437 208.476 105.22Z" fill="#9DC4FF"/>
<path d="M244.214 112.885C246.516 114.129 249.141 114.75 252.089 114.75C255.036 114.75 257.638 114.152 259.894 112.954C262.197 111.711 263.97 109.984 265.213 107.774C266.503 105.563 267.147 102.984 267.147 100.037V80.6953H258.098V99.8297C258.098 101.902 257.569 103.514 256.509 104.665C255.45 105.816 253.977 106.392 252.089 106.392C250.845 106.392 249.763 106.139 248.842 105.632C247.921 105.126 247.23 104.389 246.77 103.422C246.309 102.409 246.079 101.211 246.079 99.8297V80.6953H236.961V100.037C236.961 102.938 237.605 105.494 238.895 107.705C240.184 109.915 241.957 111.642 244.214 112.885Z" fill="#9DC4FF"/>
<path d="M270.898 114.063V80.6986H279.947V83.5933C280.756 82.803 281.677 82.1374 282.71 81.5966C284.644 80.5374 286.832 80.0078 289.272 80.0078C291.575 80.0078 293.67 80.5374 295.558 81.5966C297.141 82.4456 298.448 83.6019 299.481 85.0654C300.597 83.641 301.96 82.5078 303.571 81.6656C305.598 80.5604 307.854 80.0078 310.341 80.0078C312.828 80.0078 315.061 80.5374 317.041 81.5966C319.022 82.6097 320.587 84.0833 321.739 86.0175C322.89 87.9517 323.466 90.2543 323.466 92.9253V114.063H314.417V94.3759C314.417 92.4417 313.795 90.945 312.551 89.8859C311.354 88.7806 309.857 88.228 308.061 88.228C306.91 88.228 305.828 88.4813 304.815 88.9878C303.848 89.4484 303.088 90.1391 302.535 91.0602C301.983 91.9812 301.706 93.0864 301.706 94.3759V114.063H292.657V94.3759C292.657 92.4417 292.035 90.945 290.792 89.8859C289.595 88.7806 288.098 88.228 286.302 88.228C285.105 88.228 284.022 88.4813 283.055 88.9878C282.088 89.4484 281.328 90.1391 280.776 91.0602C280.223 91.9812 279.947 93.0864 279.947 94.3759V114.063H270.898Z" fill="#9DC4FF"/>
<path fill-rule="evenodd" clip-rule="evenodd" d="M333.983 112.542C336.7 114.016 339.809 114.752 343.309 114.752C346.026 114.752 348.536 114.269 350.838 113.302C353.187 112.335 355.167 110.907 356.779 109.019L351.46 103.7C350.447 104.851 349.25 105.726 347.868 106.325C346.486 106.878 344.944 107.154 343.24 107.154C341.352 107.154 339.694 106.762 338.266 105.98C336.839 105.151 335.733 103.999 334.95 102.526C334.656 101.918 334.42 101.271 334.244 100.583L358.644 100.522C358.828 99.7397 358.943 99.0489 358.989 98.4503C359.082 97.8055 359.128 97.1838 359.128 96.5852C359.128 93.4076 358.414 90.5754 356.986 88.0886C355.605 85.5558 353.67 83.5756 351.184 82.148C348.743 80.6743 345.911 79.9375 342.687 79.9375C339.417 79.9375 336.447 80.7204 333.776 82.2861C331.105 83.8058 328.987 85.8782 327.421 88.5031C325.901 91.082 325.141 94.0293 325.141 97.345C325.141 100.707 325.924 103.7 327.49 106.325C329.102 108.95 331.266 111.022 333.983 112.542ZM334.252 93.8115C334.413 93.2008 334.623 92.6287 334.881 92.0951C335.618 90.6215 336.654 89.4932 337.99 88.7103C339.325 87.8814 340.891 87.4669 342.687 87.4669C344.391 87.4669 345.819 87.8354 346.97 88.5722C348.167 89.263 349.065 90.2761 349.664 91.6116C349.974 92.2546 350.221 92.9723 350.403 93.7647L334.252 93.8115Z" fill="#9DC4FF"/>
<path fill-rule="evenodd" clip-rule="evenodd" d="M92.0307 134.124C115.244 134.124 134.061 115.306 134.061 92.0933C134.061 68.8803 115.244 50.0625 92.0307 50.0625C68.8178 50.0625 50 68.8803 50 92.0933C50 115.306 68.8178 134.124 92.0307 134.124ZM109.438 66.3672C109.937 66.7891 110.224 67.4092 110.224 68.0625L110.223 76.5068L110.224 77.0625L110.223 77.1289V105.396C110.223 110.305 106.243 114.285 101.334 114.285C96.4248 114.285 92.4453 110.305 92.4453 105.396C92.4453 100.487 96.4248 96.5068 101.334 96.5068C102.953 96.5068 104.471 96.9399 105.778 97.6963V79.6856L83.5557 83.3901V109.84C83.5557 114.75 79.5762 118.729 74.667 118.729C69.7578 118.729 65.7783 114.75 65.7783 109.84C65.7783 104.931 69.7578 100.951 74.667 100.951C76.2861 100.951 77.8047 101.384 79.1113 102.141L79.1123 81.5068L79.1113 80.9512L79.1123 80.8848V72.5068C79.1123 71.4209 79.8975 70.4937 80.9697 70.3149L107.636 65.8706C108.28 65.7632 108.939 65.9448 109.438 66.3672Z" fill="#9DC4FF"/>
</svg>
