<svg width="523" height="187" viewBox="0 0 523 187" fill="none" xmlns="http://www.w3.org/2000/svg">
<path d="M393.602 54V132H405.018V54H393.602Z" fill="#9DC4FF"/>
<path fill-rule="evenodd" clip-rule="evenodd" d="M290.383 133.258C285.878 133.258 282.115 132.209 279.093 130.11C278.762 129.881 278.441 129.642 278.128 129.394V131.999H268.055V55.2578H279.555V88.1335C282.376 86.3196 285.789 85.4126 289.795 85.4126C294.132 85.4126 297.909 86.4479 301.127 88.5183C304.345 90.5888 306.835 93.4288 308.597 97.0382C310.388 100.62 311.283 104.719 311.283 109.335C311.283 113.868 310.402 117.939 308.639 121.549C306.905 125.158 304.47 128.012 301.337 130.11C298.203 132.209 294.552 133.258 290.383 133.258ZM279.135 102.117C278.463 104.187 278.128 106.593 278.128 109.335C278.128 112.077 278.463 114.484 279.135 116.554C279.806 118.625 280.898 120.233 282.408 121.381C283.947 122.528 285.99 123.101 288.536 123.101C290.998 123.101 293.013 122.486 294.58 121.255C296.147 120.024 297.308 118.373 298.063 116.302C298.819 114.204 299.196 111.882 299.196 109.335C299.196 106.817 298.805 104.523 298.021 102.453C297.238 100.354 296.021 98.6889 294.37 97.4578C292.747 96.1988 290.662 95.5692 288.116 95.5692C285.738 95.5692 283.807 96.1428 282.325 97.29C280.87 98.4371 279.806 100.046 279.135 102.117Z" fill="#9DC4FF"/>
<path d="M250.003 105.219V131.996H261.418V102.198C261.418 97.2456 260.089 93.2445 257.431 90.1947C254.801 87.117 250.898 85.5781 245.722 85.5781C242.7 85.5781 239.944 86.2496 237.454 87.5926C235.174 88.8103 233.314 90.4837 231.874 92.613C230.8 90.6806 229.316 89.0911 227.423 87.8444C225.157 86.3335 222.247 85.5781 218.694 85.5781C215.588 85.5781 212.776 86.2636 210.258 87.6346C208.355 88.6823 206.746 90.0159 205.431 91.6354V86.6693H195.359V131.996H206.858V104.548C206.858 101.946 207.572 99.8337 208.999 98.2109C210.454 96.5601 212.37 95.7347 214.748 95.7347C217.239 95.7347 219.183 96.5741 220.582 98.2529C222.009 99.9037 222.723 102.226 222.723 105.219V131.996H234.138V104.548C234.138 102.813 234.46 101.288 235.104 99.9736C235.775 98.6306 236.698 97.5953 237.874 96.8679C239.049 96.1124 240.434 95.7347 242.029 95.7347C244.519 95.7347 246.463 96.5741 247.862 98.2529C249.289 99.9037 250.003 102.226 250.003 105.219Z" fill="#9DC4FF"/>
<path d="M154.461 131.537C156.699 132.74 159.594 133.342 163.148 133.342C167.596 133.342 171.277 132.377 174.187 130.446C175.568 129.539 176.785 128.498 177.838 127.325V131.999H187.911V86.6719H176.411V109.671C176.411 112.469 176.089 114.735 175.446 116.47C174.83 118.177 174.033 119.478 173.053 120.373C172.074 121.241 171.025 121.828 169.906 122.136C168.787 122.444 167.737 122.598 166.758 122.598C164.324 122.598 162.435 122.052 161.092 120.961C159.777 119.87 158.826 118.513 158.238 116.89C157.651 115.267 157.301 113.658 157.189 112.063C157.077 110.441 157.021 109.112 157.021 108.076V86.6719H145.438V112.105C145.438 112.861 145.493 114.064 145.605 115.715C145.717 117.366 146.039 119.198 146.571 121.213C147.102 123.199 147.984 125.116 149.215 126.963C150.474 128.809 152.223 130.334 154.461 131.537Z" fill="#9DC4FF"/>
<path d="M316.32 86.6745V132.002H327.819V108.835C327.819 107.1 328.057 105.547 328.533 104.176C329.009 102.777 329.708 101.574 330.631 100.567C331.555 99.5311 332.688 98.7057 334.031 98.0902C335.374 97.4467 336.871 97.0689 338.522 96.957C340.2 96.8171 341.669 96.943 342.928 97.3347V86.6745C341.557 86.5066 340.186 86.4786 338.815 86.5906C337.444 86.6745 336.115 86.9123 334.828 87.304C333.541 87.6678 332.352 88.1854 331.261 88.8569C329.834 89.6963 328.631 90.7595 327.652 92.0466C327.188 92.6559 326.768 93.2965 326.392 93.9685V86.6745H316.32Z" fill="#9DC4FF"/>
<path fill-rule="evenodd" clip-rule="evenodd" d="M366.962 133.259C362.317 133.259 358.218 132.266 354.665 130.279C351.139 128.265 348.369 125.509 346.355 122.011C344.368 118.486 343.375 114.457 343.375 109.924C343.375 104.972 344.354 100.663 346.313 96.9977C348.271 93.3323 350.971 90.4924 354.413 88.4779C357.854 86.4354 361.814 85.4141 366.29 85.4141C371.047 85.4141 375.09 86.5333 378.419 88.7717C381.749 91.01 384.211 94.1577 385.806 98.2148C387.401 102.272 387.961 107.042 387.485 112.526H355.658C356.014 115.247 356.859 117.457 358.19 119.157C360.037 121.452 362.737 122.599 366.29 122.599C368.529 122.599 370.445 122.109 372.04 121.13C373.635 120.151 374.852 118.738 375.691 116.891L387.107 120.165C385.4 124.306 382.7 127.523 379.007 129.817C375.342 132.112 371.327 133.259 366.962 133.259ZM373.971 98.3827C374.946 99.7081 375.601 101.597 375.935 104.048H355.958C356.403 101.955 357.147 100.234 358.19 98.8863C360.037 96.508 362.905 95.3189 366.794 95.3189C370.124 95.3189 372.516 96.3402 373.971 98.3827Z" fill="#9DC4FF"/>
<path d="M414.242 132V54H425.658V132H414.242Z" fill="#9DC4FF"/>
<path fill-rule="evenodd" clip-rule="evenodd" d="M438.364 131.412C440.631 132.643 443.387 133.259 446.632 133.259C450.549 133.259 453.781 132.587 456.327 131.244C458.357 130.163 460.273 128.561 462.077 126.436V132H472.066V104.3C472.066 102.23 471.982 100.355 471.814 98.6765C471.646 96.9977 471.114 95.3189 470.219 93.6401C468.624 90.6183 466.274 88.4919 463.168 87.2608C460.062 86.0297 456.509 85.4141 452.508 85.4141C447.052 85.4141 442.743 86.5893 439.581 88.9396C436.42 91.2898 434.265 94.3396 433.118 98.0889L443.443 101.362C444.17 99.292 445.443 97.8511 447.262 97.0397C449.08 96.2282 450.829 95.8225 452.508 95.8225C455.53 95.8225 457.684 96.4521 458.971 97.7112C459.982 98.6999 460.596 100.128 460.813 101.997C458.88 102.29 457.049 102.568 455.32 102.831C452.382 103.251 449.752 103.699 447.43 104.174C445.107 104.65 443.107 105.196 441.428 105.811C438.994 106.706 437.049 107.826 435.594 109.169C434.167 110.484 433.132 112.008 432.488 113.743C431.845 115.478 431.523 117.395 431.523 119.493C431.523 122.011 432.097 124.319 433.244 126.418C434.419 128.488 436.126 130.153 438.364 131.412ZM454.355 123.186C452.928 123.914 451.165 124.278 449.066 124.278C447.751 124.278 446.618 124.082 445.667 123.69C444.716 123.298 443.974 122.739 443.443 122.011C442.939 121.256 442.687 120.36 442.687 119.325C442.687 118.57 442.841 117.884 443.149 117.269C443.484 116.653 443.988 116.094 444.66 115.59C445.359 115.058 446.268 114.569 447.388 114.121C448.367 113.757 449.5 113.421 450.787 113.114C452.074 112.806 453.767 112.47 455.865 112.106C457.214 111.855 458.828 111.568 460.708 111.247C460.682 112.045 460.634 112.947 460.566 113.953C460.482 115.576 460.146 117.003 459.559 118.234C459.251 118.877 458.663 119.675 457.796 120.626C456.957 121.577 455.81 122.431 454.355 123.186Z" fill="#9DC4FF"/>
<path fill-rule="evenodd" clip-rule="evenodd" d="M82.4375 87H51.4375V100.5C51.4375 120.658 67.7791 137 87.9375 137C108.096 137 124.438 120.658 124.438 100.5V87H92.4375V65.5C92.4375 56.9396 85.4979 50 76.9375 50C68.3771 50 61.4375 56.9396 61.4375 65.5H71.4375C71.4375 62.4624 73.9 60 76.9375 60C79.9751 60 82.4375 62.4624 82.4375 65.5V87ZM82.4375 97V116H92.4375V97H114.438V100.5C114.438 115.136 102.573 127 87.9375 127C73.302 127 61.4375 115.136 61.4375 100.5V97H82.4375Z" fill="#9DC4FF"/>
</svg>
