<svg width="645" height="179" viewBox="0 0 645 179" fill="none" xmlns="http://www.w3.org/2000/svg">
<path d="M152.219 122.637V53.0625H164.941L197.641 102.063V53.0625H210.363V122.637H197.641L164.941 73.7362V122.637H152.219Z" fill="#9DC4FF"/>
<path d="M242.536 123.825C237.566 123.825 233.16 122.764 229.317 120.644C225.474 118.524 222.459 115.542 220.272 111.699C218.085 107.855 216.992 103.416 216.992 98.3803C216.992 93.2781 218.052 88.7392 220.173 84.7635C222.359 80.7878 225.341 77.7066 229.118 75.52C232.961 73.2671 237.467 72.1406 242.635 72.1406C247.473 72.1406 251.746 73.2008 255.457 75.3212C259.168 77.4415 262.05 80.3571 264.104 84.0677C266.225 87.7121 267.285 91.7872 267.285 96.293C267.285 97.0219 267.252 97.7839 267.185 98.579C267.185 99.3742 267.152 100.202 267.086 101.064H229.615C229.88 104.907 231.205 107.922 233.591 110.108C236.042 112.295 238.991 113.388 242.437 113.388C245.021 113.388 247.174 112.825 248.897 111.699C250.686 110.506 252.011 108.982 252.873 107.127H265.794C264.866 110.241 263.309 113.09 261.122 115.674C259.002 118.192 256.352 120.18 253.171 121.638C250.057 123.096 246.512 123.825 242.536 123.825ZM242.635 82.4774C239.521 82.4774 236.771 83.372 234.386 85.161C232 86.8838 230.476 89.5343 229.814 93.1124H254.364C254.165 89.8656 252.972 87.2814 250.786 85.3598C248.599 83.4382 245.882 82.4774 242.635 82.4774Z" fill="#9DC4FF"/>
<path d="M264.945 122.635L282.835 97.9853L264.945 73.3359H278.562L291.085 90.829L303.509 73.3359H317.225L299.235 97.9853L317.225 122.635H303.509L291.085 105.142L278.562 122.635H264.945Z" fill="#9DC4FF"/>
<path d="M342.333 122.635C337.164 122.635 333.023 121.376 329.908 118.858C326.794 116.34 325.237 111.867 325.237 105.44V83.9714H316.789V73.3364H325.237L326.728 60.1172H337.959V73.3364H351.278V83.9714H337.959V105.539C337.959 107.925 338.456 109.581 339.45 110.509C340.51 111.37 342.299 111.801 344.817 111.801H350.98V122.635H342.333Z" fill="#9DC4FF"/>
<path d="M357.227 122.632V73.3333H368.459L369.552 79.9926C371.142 77.6072 373.23 75.7187 375.814 74.3272C378.464 72.8695 381.512 72.1406 384.958 72.1406C392.578 72.1406 397.978 75.0893 401.159 80.9866C402.948 78.2698 405.333 76.1163 408.315 74.526C411.363 72.9358 414.676 72.1406 418.254 72.1406C424.682 72.1406 429.618 74.0622 433.064 77.9054C436.509 81.7486 438.232 87.3808 438.232 94.8021V122.632H425.51V95.9948C425.51 91.7541 424.682 88.5073 423.025 86.2544C421.435 84.0015 418.95 82.875 415.571 82.875C412.125 82.875 409.342 84.134 407.222 86.6519C405.168 89.1699 404.141 92.6818 404.141 97.1875V122.632H391.418V95.9948C391.418 91.7541 390.59 88.5073 388.934 86.2544C387.277 84.0015 384.726 82.875 381.28 82.875C377.901 82.875 375.151 84.134 373.031 86.6519C370.977 89.1699 369.95 92.6818 369.95 97.1875V122.632H357.227Z" fill="#9DC4FF"/>
<path d="M468.996 123.825C464.225 123.825 459.918 122.731 456.075 120.545C452.298 118.358 449.283 115.343 447.03 111.5C444.843 107.59 443.75 103.085 443.75 97.9827C443.75 92.8805 444.876 88.4079 447.129 84.5647C449.382 80.6552 452.397 77.6072 456.174 75.4206C460.017 73.2339 464.324 72.1406 469.095 72.1406C473.8 72.1406 478.04 73.2339 481.817 75.4206C485.66 77.6072 488.675 80.6552 490.862 84.5647C493.115 88.4079 494.241 92.8805 494.241 97.9827C494.241 103.085 493.115 107.59 490.862 111.5C488.675 115.343 485.66 118.358 481.817 120.545C477.974 122.731 473.7 123.825 468.996 123.825ZM468.996 112.792C472.309 112.792 475.191 111.566 477.643 109.114C480.094 106.597 481.32 102.886 481.32 97.9827C481.32 93.0793 480.094 89.4018 477.643 86.9501C475.191 84.4322 472.342 83.1732 469.095 83.1732C465.716 83.1732 462.8 84.4322 460.348 86.9501C457.963 89.4018 456.77 93.0793 456.77 97.9827C456.77 102.886 457.963 106.597 460.348 109.114C462.8 111.566 465.683 112.792 468.996 112.792Z" fill="#9DC4FF"/>
<path d="M511.543 122.635L493.453 73.3359H506.772L519.295 110.608L531.819 73.3359H545.137L526.949 122.635H511.543Z" fill="#9DC4FF"/>
<path d="M569.716 123.825C564.747 123.825 560.34 122.764 556.497 120.644C552.654 118.524 549.639 115.542 547.452 111.699C545.266 107.855 544.172 103.416 544.172 98.3803C544.172 93.2781 545.233 88.7392 547.353 84.7635C549.54 80.7878 552.521 77.7066 556.298 75.52C560.141 73.2671 564.647 72.1406 569.816 72.1406C574.653 72.1406 578.927 73.2008 582.637 75.3212C586.348 77.4415 589.23 80.3571 591.284 84.0677C593.405 87.7121 594.465 91.7872 594.465 96.293C594.465 97.0219 594.432 97.7839 594.366 98.579C594.366 99.3742 594.332 100.202 594.266 101.064H556.795C557.06 104.907 558.386 107.922 560.771 110.108C563.223 112.295 566.171 113.388 569.617 113.388C572.201 113.388 574.355 112.825 576.077 111.699C577.866 110.506 579.192 108.982 580.053 107.127H592.974C592.046 110.241 590.489 113.09 588.303 115.674C586.182 118.192 583.532 120.18 580.351 121.638C577.237 123.096 573.692 123.825 569.716 123.825ZM569.816 82.4774C566.701 82.4774 563.951 83.372 561.566 85.161C559.181 86.8838 557.657 89.5343 556.994 93.1124H581.544C581.345 89.8656 580.152 87.2814 577.966 85.3598C575.779 83.4382 573.062 82.4774 569.816 82.4774Z" fill="#9DC4FF"/>
<path d="M89.4844 51.71V83.1622C89.4844 86.752 86.5743 89.6622 82.9844 89.6622H51.5322V76.6622H67.2745L50.7344 60.1221L59.9268 50.9297L76.4844 67.4873V51.71H89.4844Z" fill="#9DC4FF"/>
<path d="M127.882 90.1094H96.4297C92.8398 90.1094 89.9297 93.0196 89.9297 96.6094V128.062H102.93V112.318L119.471 128.859L128.663 119.667L112.106 103.109H127.882V90.1094Z" fill="#9DC4FF"/>
</svg>
