<svg width="452" height="178" viewBox="0 0 452 178" fill="none" xmlns="http://www.w3.org/2000/svg">
<path fill-rule="evenodd" clip-rule="evenodd" d="M63.6702 70.003C69.5554 62.0869 78.9796 56.9583 89.6016 56.9583C100.286 56.9583 109.758 62.1474 115.636 70.1429C115.386 70.4002 115.158 70.6668 114.952 70.9331C113.875 72.3274 113.065 74.1234 112.416 75.9472C111.109 79.6153 110.112 84.4066 109.189 88.8933L109.107 89.2967C108.186 93.7751 107.33 97.9401 106.295 101.032C105.83 102.421 105.389 103.403 104.998 104.032C104.59 103.398 104.127 102.404 103.637 100.995C102.53 97.8144 101.599 93.4882 100.612 88.8689L100.58 88.7176C99.6317 84.2806 98.6256 79.5727 97.3712 75.9691C96.741 74.1589 95.9677 72.3809 94.9564 70.9995C93.9638 69.6438 92.3116 68.1138 89.8952 68.1138C87.4939 68.1138 85.8341 69.6272 84.8272 70.9677C83.7963 72.3401 82.9926 74.1108 82.3305 75.9219C80.9972 79.569 79.9071 84.3397 78.8926 88.8325L78.7878 89.2967C77.7832 93.7473 76.8441 97.9082 75.7781 101.006C75.3711 102.189 74.9871 103.089 74.6395 103.732C74.2998 103.092 73.9254 102.198 73.5295 101.025C72.5068 97.9932 71.6109 93.9488 70.6487 89.6048L70.4803 88.8446C69.4833 84.349 68.4017 79.5697 67.0494 75.9112C66.3775 74.0933 65.5557 72.3138 64.4922 70.9349C64.2514 70.6228 63.9777 70.306 63.6702 70.003ZM60.1083 76.0813C60.3886 76.6348 60.6851 77.3208 60.9917 78.1503C62.1622 81.317 63.1539 85.6381 64.1751 90.2429L64.3738 91.1401C65.3036 95.3418 66.2708 99.7124 67.41 103.089C68.0159 104.885 68.7476 106.644 69.6887 108.011C70.5786 109.304 72.1751 110.974 74.63 110.974C77.0778 110.974 78.6781 109.312 79.5741 108.025C80.5232 106.661 81.2669 104.904 81.8851 103.107C83.0701 99.6635 84.079 95.1904 85.0446 90.9096L85.1923 90.255C86.2327 85.6474 87.2342 81.3177 88.3962 78.1395C88.9345 76.667 89.4385 75.6412 89.8772 75.0048C90.2931 75.6357 90.7681 76.6452 91.2719 78.0924C92.3791 81.2731 93.3093 85.5993 94.2965 90.2186L94.3288 90.3699C95.277 94.8069 96.2831 99.5148 97.5375 103.118C98.1677 104.929 98.941 106.707 99.9523 108.088C100.945 109.444 102.597 110.974 105.013 110.974C107.442 110.974 109.088 109.43 110.069 108.062C111.065 106.674 111.814 104.89 112.419 103.082C113.582 99.6093 114.507 95.1033 115.388 90.8167L115.515 90.1942C116.464 85.5805 117.375 81.2714 118.5 78.1142C118.744 77.4274 118.984 76.8418 119.213 76.3499C120.937 80.301 121.893 84.6639 121.893 89.25C121.893 107.084 107.436 121.542 89.6016 121.542C71.7674 121.542 57.3099 107.084 57.3099 89.25C57.3099 84.5597 58.3099 80.1029 60.1083 76.0813ZM89.6016 50.5C68.2006 50.5 50.8516 67.849 50.8516 89.25C50.8516 110.651 68.2006 128 89.6016 128C111.003 128 128.351 110.651 128.351 89.25C128.351 67.849 111.003 50.5 89.6016 50.5ZM90.3398 74.4642C90.3398 74.465 90.3323 74.471 90.3172 74.4798C90.3322 74.4678 90.3398 74.4634 90.3398 74.4642ZM89.4472 74.4686C89.4322 74.4594 89.4248 74.4531 89.4248 74.4523C89.4248 74.4515 89.4323 74.4561 89.4472 74.4686ZM104.522 104.645C104.522 104.645 104.529 104.638 104.543 104.629C104.529 104.641 104.522 104.646 104.522 104.645ZM105.461 104.619C105.476 104.628 105.484 104.634 105.484 104.635C105.484 104.636 105.476 104.631 105.461 104.619ZM73.9682 104.703C73.9681 104.702 73.9774 104.693 73.996 104.68C73.9776 104.697 73.9682 104.704 73.9682 104.703ZM75.2761 104.686C75.2946 104.699 75.3038 104.708 75.3038 104.709C75.3037 104.71 75.2944 104.704 75.2761 104.686Z" fill="#9DC4FF"/>
<path d="M149.749 112.19L140.352 80.0469H148.583L154.156 103.182L160.636 80.0469H169.838L176.319 103.182L181.957 80.0469H190.187L180.726 112.19H172.107L165.237 88.1475L158.368 112.19H149.749Z" fill="#9DC4FF"/>
<path d="M202.264 112.972C199.499 112.972 197.231 112.539 195.46 111.675C193.689 110.768 192.371 109.58 191.507 108.111C190.643 106.642 190.211 105.022 190.211 103.251C190.211 100.27 191.377 97.8506 193.71 95.9929C196.043 94.1352 199.543 93.2063 204.209 93.2063H212.374V92.4286C212.374 90.2253 211.747 88.6052 210.495 87.5683C209.242 86.5314 207.686 86.013 205.829 86.013C204.144 86.013 202.675 86.4234 201.422 87.2443C200.169 88.022 199.391 89.1884 199.089 90.7437H190.988C191.205 88.4108 191.982 86.3802 193.321 84.6521C194.704 82.924 196.475 81.6063 198.635 80.6991C200.796 79.7486 203.215 79.2734 205.893 79.2734C210.473 79.2734 214.08 80.4182 216.716 82.708C219.351 84.9977 220.669 88.238 220.669 92.4286V112.194H213.605L212.828 107.01C211.877 108.738 210.538 110.163 208.81 111.287C207.125 112.41 204.943 112.972 202.264 112.972ZM204.144 106.491C206.52 106.491 208.356 105.713 209.652 104.158C210.991 102.603 211.834 100.68 212.18 98.3906H205.116C202.912 98.3906 201.336 98.8011 200.385 99.6219C199.435 100.399 198.959 101.372 198.959 102.538C198.959 103.791 199.435 104.763 200.385 105.454C201.336 106.145 202.588 106.491 204.144 106.491Z" fill="#9DC4FF"/>
<path d="M233.732 112.19L221.938 80.0469H230.62L238.786 104.349L246.952 80.0469H255.635L243.777 112.19H233.732Z" fill="#9DC4FF"/>
<path d="M272.31 112.972C269.07 112.972 266.197 112.28 263.691 110.898C261.186 109.515 259.22 107.571 257.794 105.065C256.368 102.56 255.656 99.6651 255.656 96.3817C255.656 93.0551 256.347 90.0957 257.729 87.5035C259.155 84.9113 261.099 82.9024 263.562 81.4767C266.067 80.0078 269.005 79.2734 272.375 79.2734C275.529 79.2734 278.316 79.9646 280.735 81.3471C283.154 82.7296 285.034 84.6305 286.373 87.0499C287.755 89.426 288.447 92.083 288.447 95.0208C288.447 95.4961 288.425 95.9929 288.382 96.5113C288.382 97.0298 288.36 97.5698 288.317 98.1314H263.886C264.059 100.637 264.923 102.603 266.478 104.029C268.076 105.454 269.999 106.167 272.246 106.167C273.93 106.167 275.335 105.8 276.458 105.065C277.624 104.288 278.488 103.294 279.05 102.084H287.475C286.87 104.115 285.854 105.973 284.429 107.658C283.046 109.299 281.318 110.595 279.244 111.546C277.214 112.496 274.902 112.972 272.31 112.972ZM272.375 86.013C270.345 86.013 268.552 86.5963 266.996 87.7627C265.441 88.886 264.447 90.6141 264.015 92.9471H280.022C279.892 90.8301 279.115 89.1452 277.689 87.8923C276.263 86.6395 274.492 86.013 272.375 86.013Z" fill="#9DC4FF"/>
<path d="M292.828 112.191V65.5312H301.123V112.191H292.828Z" fill="#9DC4FF"/>
<path d="M322.623 112.972C319.383 112.972 316.51 112.28 314.004 110.898C311.499 109.515 309.533 107.571 308.107 105.065C306.681 102.56 305.969 99.6651 305.969 96.3817C305.969 93.0551 306.66 90.0957 308.042 87.5035C309.468 84.9113 311.412 82.9024 313.875 81.4767C316.381 80.0078 319.318 79.2734 322.688 79.2734C325.842 79.2734 328.629 79.9646 331.048 81.3471C333.467 82.7296 335.347 84.6305 336.686 87.0499C338.068 89.426 338.76 92.083 338.76 95.0208C338.76 95.4961 338.738 95.9929 338.695 96.5113C338.695 97.0298 338.673 97.5698 338.63 98.1314H314.199C314.372 100.637 315.236 102.603 316.791 104.029C318.389 105.454 320.312 106.167 322.559 106.167C324.243 106.167 325.648 105.8 326.771 105.065C327.937 104.288 328.801 103.294 329.363 102.084H337.788C337.183 104.115 336.167 105.973 334.742 107.658C333.359 109.299 331.631 110.595 329.557 111.546C327.527 112.496 325.216 112.972 322.623 112.972ZM322.688 86.013C320.658 86.013 318.865 86.5963 317.309 87.7627C315.754 88.886 314.76 90.6141 314.328 92.9471H330.335C330.205 90.8301 329.428 89.1452 328.002 87.8923C326.576 86.6395 324.805 86.013 322.688 86.013Z" fill="#9DC4FF"/>
<path d="M356.433 112.972C353.582 112.972 351.076 112.518 348.916 111.611C346.755 110.66 345.027 109.364 343.731 107.722C342.435 106.081 341.658 104.18 341.398 102.02H349.758C350.017 103.272 350.709 104.353 351.832 105.26C352.998 106.124 354.489 106.556 356.303 106.556C358.118 106.556 359.436 106.189 360.256 105.454C361.12 104.72 361.552 103.877 361.552 102.927C361.552 101.544 360.948 100.615 359.738 100.14C358.528 99.6219 356.843 99.1251 354.683 98.6499C353.301 98.3474 351.897 97.9802 350.471 97.5482C349.045 97.1162 347.728 96.5761 346.518 95.9281C345.351 95.2368 344.401 94.3728 343.666 93.3359C342.932 92.2558 342.565 90.9381 342.565 89.3828C342.565 86.5314 343.688 84.1337 345.935 82.1896C348.224 80.2454 351.421 79.2734 355.526 79.2734C359.328 79.2734 362.352 80.159 364.598 81.9303C366.888 83.7017 368.249 86.1426 368.681 89.2532H360.84C360.364 86.8771 358.571 85.689 355.461 85.689C353.906 85.689 352.696 85.9914 351.832 86.5963C351.011 87.2011 350.601 87.9571 350.601 88.8644C350.601 89.8149 351.227 90.5709 352.48 91.1326C353.733 91.6942 355.396 92.2126 357.47 92.6879C359.716 93.2063 361.768 93.7895 363.626 94.4376C365.527 95.0424 367.039 95.9713 368.163 97.2242C369.286 98.4338 369.847 100.183 369.847 102.473C369.891 104.461 369.372 106.253 368.292 107.852C367.212 109.45 365.657 110.703 363.626 111.611C361.596 112.518 359.198 112.972 356.433 112.972Z" fill="#9DC4FF"/>
<path d="M387.886 112.972C385.035 112.972 382.529 112.518 380.369 111.611C378.209 110.66 376.481 109.364 375.185 107.722C373.889 106.081 373.111 104.18 372.852 102.02H381.212C381.471 103.272 382.162 104.353 383.285 105.26C384.452 106.124 385.942 106.556 387.757 106.556C389.571 106.556 390.889 106.189 391.71 105.454C392.574 104.72 393.006 103.877 393.006 102.927C393.006 101.544 392.401 100.615 391.191 100.14C389.982 99.6219 388.297 99.1251 386.137 98.6499C384.754 98.3474 383.35 97.9802 381.924 97.5482C380.499 97.1162 379.181 96.5761 377.971 95.9281C376.805 95.2368 375.854 94.3728 375.12 93.3359C374.385 92.2558 374.018 90.9381 374.018 89.3828C374.018 86.5314 375.142 84.1337 377.388 82.1896C379.678 80.2454 382.875 79.2734 386.979 79.2734C390.781 79.2734 393.805 80.159 396.052 81.9303C398.341 83.7017 399.702 86.1426 400.134 89.2532H392.293C391.818 86.8771 390.025 85.689 386.914 85.689C385.359 85.689 384.149 85.9914 383.285 86.5963C382.464 87.2011 382.054 87.9571 382.054 88.8644C382.054 89.8149 382.68 90.5709 383.933 91.1326C385.186 91.6942 386.849 92.2126 388.923 92.6879C391.17 93.2063 393.222 93.7895 395.08 94.4376C396.981 95.0424 398.493 95.9713 399.616 97.2242C400.739 98.4338 401.301 100.183 401.301 102.473C401.344 104.461 400.826 106.253 399.746 107.852C398.665 109.45 397.11 110.703 395.08 111.611C393.049 112.518 390.651 112.972 387.886 112.972Z" fill="#9DC4FF"/>
</svg>
