<svg width="466" height="193" viewBox="0 0 466 193" fill="none" xmlns="http://www.w3.org/2000/svg">
<path d="M107.969 68C107.969 58.0589 116.028 50 125.969 50C135.91 50 143.969 58.0589 143.969 68C143.969 77.9411 135.91 86 125.969 86C116.028 86 107.969 77.9411 107.969 68Z" fill="#9DC4FF"/>
<path d="M127.059 93.981V106.934C127.059 112.673 127.055 116.733 126.792 119.905C126.533 123.028 126.042 124.931 125.266 126.423C123.756 129.33 121.386 131.701 118.478 133.211C116.986 133.987 115.083 134.478 111.96 134.737C108.788 135 104.728 135.004 98.9892 135.004H87.0378C81.299 135.004 77.2394 135 74.0678 134.737C70.9441 134.478 69.0418 133.987 67.5493 133.211C64.6419 131.701 62.2714 129.33 60.7611 126.423C59.9858 124.931 59.4949 123.028 59.2354 119.905C58.9721 116.733 58.9688 112.673 58.9688 106.934V94.9832C58.9688 89.2443 58.9721 85.1847 59.2354 82.0131C59.4949 78.8894 59.9858 76.9871 60.7611 75.4946C62.2714 72.5872 64.6419 70.2166 67.5493 68.7063C69.0418 67.931 70.9441 67.4401 74.0678 67.1807C77.2394 66.9173 81.2989 66.9141 87.0378 66.9141H99.9911C100.107 64.11 100.667 61.4205 101.602 58.9141H86.8599C81.339 58.914 76.9472 58.914 73.4057 59.2081C69.7784 59.5093 66.6862 60.1397 63.8615 61.607C59.4929 63.8763 55.9311 67.4383 53.6618 71.8069C52.1945 74.6315 51.5641 77.7237 51.2629 81.351C50.9688 84.8925 50.9688 89.2843 50.9688 94.8052V107.112C50.9688 112.633 50.9688 117.025 51.2629 120.567C51.5641 124.194 52.1945 127.286 53.6618 130.111C55.9311 134.479 59.4929 138.041 63.8615 140.311C66.6862 141.778 69.7784 142.408 73.4057 142.71C76.9472 143.004 81.3388 143.004 86.8597 143.004H99.1669C104.688 143.004 109.08 143.004 112.622 142.71C116.249 142.408 119.341 141.778 122.166 140.311C126.534 138.041 130.096 134.479 132.366 130.111C133.833 127.286 134.463 124.194 134.765 120.567C135.059 117.025 135.059 112.633 135.059 107.113V92.3704C132.552 93.3057 129.863 93.8654 127.059 93.981Z" fill="#9DC4FF"/>
<path d="M195.454 93.2878C195.454 95.7438 194.862 98.0462 193.678 100.196C192.538 102.345 190.718 104.077 188.218 105.393C185.762 106.708 182.648 107.366 178.876 107.366H171.179V124.997H161.969V79.0781H178.876C182.429 79.0781 185.455 79.6921 187.955 80.9201C190.454 82.1481 192.318 83.8365 193.546 85.9855C194.818 88.1345 195.454 90.5686 195.454 93.2878ZM178.481 99.9321C181.025 99.9321 182.911 99.362 184.139 98.2217C185.367 97.0375 185.981 95.3929 185.981 93.2878C185.981 88.8143 183.481 86.5776 178.481 86.5776H171.179V99.9321H178.481Z" fill="#9DC4FF"/>
<path d="M208.569 94.2151C209.753 92.2853 211.288 90.7723 213.174 89.6758C215.103 88.5794 217.296 88.0312 219.752 88.0312V97.7018H217.318C214.424 97.7018 212.231 98.3816 210.74 99.7411C209.292 101.101 208.569 103.469 208.569 106.846V125.003H199.359V88.5575H208.569V94.2151Z" fill="#9DC4FF"/>
<path d="M239.508 125.591C236 125.591 232.842 124.823 230.035 123.288C227.228 121.709 225.014 119.495 223.391 116.644C221.812 113.793 221.023 110.504 221.023 106.776C221.023 103.048 221.834 99.7585 223.457 96.9078C225.123 94.0571 227.382 91.8642 230.233 90.3292C233.083 88.7503 236.263 87.9609 239.772 87.9609C243.28 87.9609 246.46 88.7503 249.311 90.3292C252.161 91.8642 254.398 94.0571 256.021 96.9078C257.687 99.7585 258.521 103.048 258.521 106.776C258.521 110.504 257.665 113.793 255.955 116.644C254.288 119.495 252.008 121.709 249.113 123.288C246.262 124.823 243.061 125.591 239.508 125.591ZM239.508 117.565C241.175 117.565 242.732 117.17 244.179 116.381C245.67 115.548 246.855 114.32 247.732 112.697C248.609 111.074 249.047 109.101 249.047 106.776C249.047 103.311 248.126 100.658 246.284 98.8155C244.486 96.9297 242.271 95.9868 239.64 95.9868C237.009 95.9868 234.794 96.9297 232.996 98.8155C231.241 100.658 230.364 103.311 230.364 106.776C230.364 110.241 231.219 112.916 232.93 114.802C234.684 116.644 236.877 117.565 239.508 117.565Z" fill="#9DC4FF"/>
<path d="M260.281 106.648C260.281 102.964 261.004 99.6961 262.452 96.8454C263.943 93.9947 265.96 91.8018 268.504 90.2668C271.048 88.7318 273.876 87.9643 276.99 87.9643C279.359 87.9643 281.617 88.4906 283.766 89.5432C285.915 90.5519 287.626 91.9115 288.897 93.6219V76.3203H298.239V125.002H288.897V119.607C287.757 121.405 286.156 122.853 284.095 123.949C282.034 125.046 279.644 125.594 276.924 125.594C273.854 125.594 271.048 124.804 268.504 123.226C265.96 121.647 263.943 119.432 262.452 116.581C261.004 113.687 260.281 110.375 260.281 106.648ZM288.963 106.779C288.963 104.542 288.525 102.635 287.648 101.056C286.77 99.4329 285.586 98.205 284.095 97.3717C282.604 96.4945 281.003 96.056 279.293 96.056C277.582 96.056 276.003 96.4726 274.556 97.3059C273.109 98.1392 271.925 99.3672 271.004 100.99C270.127 102.569 269.688 104.455 269.688 106.648C269.688 108.84 270.127 110.77 271.004 112.437C271.925 114.059 273.109 115.309 274.556 116.186C276.047 117.064 277.626 117.502 279.293 117.502C281.003 117.502 282.604 117.086 284.095 116.252C285.586 115.375 286.77 114.147 287.648 112.568C288.525 110.946 288.963 109.016 288.963 106.779Z" fill="#9DC4FF"/>
<path d="M339.008 88.5547V125H329.732V120.395C328.548 121.974 326.991 123.224 325.061 124.145C323.175 125.022 321.114 125.46 318.877 125.46C316.027 125.46 313.505 124.868 311.312 123.684C309.119 122.456 307.387 120.68 306.115 118.355C304.887 115.987 304.273 113.18 304.273 109.935V88.5547H313.483V108.619C313.483 111.514 314.206 113.75 315.654 115.329C317.101 116.864 319.075 117.632 321.574 117.632C324.118 117.632 326.114 116.864 327.561 115.329C329.008 113.75 329.732 111.514 329.732 108.619V88.5547H339.008Z" fill="#9DC4FF"/>
<path d="M343.094 106.776C343.094 103.004 343.862 99.7146 345.397 96.9078C346.932 94.0571 349.059 91.8642 351.778 90.3292C354.497 88.7503 357.611 87.9609 361.119 87.9609C365.637 87.9609 369.364 89.1012 372.303 91.3818C375.285 93.6185 377.281 96.7762 378.289 100.855H368.356C367.829 99.276 366.93 98.0481 365.659 97.1709C364.431 96.2499 362.896 95.7894 361.054 95.7894C358.422 95.7894 356.339 96.7543 354.804 98.684C353.269 100.57 352.501 103.268 352.501 106.776C352.501 110.241 353.269 112.938 354.804 114.868C356.339 116.754 358.422 117.697 361.054 117.697C364.781 117.697 367.215 116.03 368.356 112.697H378.289C377.281 116.644 375.285 119.78 372.303 122.104C369.321 124.429 365.593 125.591 361.119 125.591C357.611 125.591 354.497 124.823 351.778 123.288C349.059 121.709 346.932 119.517 345.397 116.71C343.862 113.859 343.094 110.548 343.094 106.776Z" fill="#9DC4FF"/>
<path d="M393.125 96.117V113.747C393.125 114.975 393.41 115.874 393.98 116.445C394.594 116.971 395.603 117.234 397.007 117.234H401.283V124.997H395.493C387.731 124.997 383.849 121.225 383.849 113.682V96.117H379.508V88.5517H383.849V79.5391H393.125V88.5517H401.283V96.117H393.125Z" fill="#9DC4FF"/>
<path d="M409.356 125.461C407.69 125.461 406.308 124.956 405.212 123.948C404.159 122.895 403.633 121.601 403.633 120.066C403.633 118.531 404.159 117.259 405.212 116.251C406.308 115.198 407.69 114.672 409.356 114.672C410.979 114.672 412.317 115.198 413.369 116.251C414.422 117.259 414.948 118.531 414.948 120.066C414.948 121.601 414.422 122.895 413.369 123.948C412.317 124.956 410.979 125.461 409.356 125.461Z" fill="#9DC4FF"/>
</svg>
