<svg width="475" height="174" viewBox="0 0 475 174" fill="none" xmlns="http://www.w3.org/2000/svg">
<path d="M173.389 115.424C177.476 117.439 182.37 118.446 188.069 118.446C194.057 118.446 199.209 117.324 203.527 115.078C207.845 112.833 211.241 109.84 213.717 106.098C216.192 102.356 217.718 98.2393 218.294 93.7488H205.945C205.254 97.9514 203.268 101.233 199.986 103.593C196.762 105.896 192.79 107.047 188.069 107.047C184.845 107.047 181.996 106.501 179.52 105.407C177.102 104.313 175.059 102.787 173.389 100.83C171.719 98.815 170.453 96.4834 169.589 93.8352C168.783 91.187 168.38 88.3085 168.38 85.1997C168.38 81.9758 168.783 79.0397 169.589 76.3915C170.453 73.7433 171.691 71.4405 173.303 69.4831C174.915 67.5257 176.93 66.0289 179.347 64.9926C181.765 63.8988 184.529 63.3519 187.638 63.3519C190.689 63.3519 193.423 63.87 195.841 64.9063C198.259 65.885 200.245 67.3818 201.8 69.3967C203.412 71.3541 204.448 73.7721 204.909 76.6506H217.257C216.739 71.6995 215.214 67.3818 212.68 63.6973C210.147 59.9553 206.751 57.0768 202.491 55.0618C198.288 52.9893 193.337 51.9531 187.638 51.9531C182.168 51.9531 177.419 52.903 173.389 54.8028C169.417 56.645 166.135 59.1205 163.545 62.2293C160.954 65.3381 159.025 68.7923 157.759 72.5919C156.55 76.3915 155.945 80.2487 155.945 84.1634V86.0632C155.945 89.575 156.55 93.2307 157.759 97.0303C158.968 100.83 160.839 104.342 163.372 107.566C165.962 110.79 169.302 113.409 173.389 115.424Z" fill="#9DC4FF"/>
<path fill-rule="evenodd" clip-rule="evenodd" d="M250.32 111.109C250.914 110.103 251.403 108.993 251.788 107.778V116.809H261.287V87.7066C261.287 83.3313 260.453 79.7907 258.783 77.0849C257.171 74.3791 254.753 72.393 251.529 71.1264C248.363 69.8599 244.362 69.2266 239.526 69.2266C237.972 69.2266 236.302 69.2554 234.517 69.313C232.79 69.313 231.092 69.3706 229.422 69.4857C227.753 69.6008 226.256 69.716 224.932 69.8311V80.021C226.544 79.9059 228.357 79.8195 230.372 79.7619C232.445 79.6468 234.489 79.5604 236.504 79.5029C238.519 79.4453 240.246 79.4165 241.685 79.4165C244.448 79.4165 246.492 80.0786 247.816 81.4027C249.14 82.7268 249.802 84.7417 249.802 87.4475V87.8793H240.217C236.072 87.8793 232.445 88.4262 229.336 89.52C226.285 90.6139 223.896 92.2546 222.169 94.4423C220.499 96.6299 219.664 99.4509 219.664 102.905C219.664 106.072 220.355 108.778 221.737 111.023C223.176 113.268 225.162 114.995 227.695 116.204C230.286 117.413 233.28 118.018 236.676 118.018C239.958 118.018 242.721 117.442 244.966 116.29C247.269 115.081 249.054 113.354 250.32 111.109ZM248.161 105.496C249.14 103.999 249.687 101.984 249.802 99.4508V95.0468H240.044C237.281 95.0468 235.151 95.7376 233.654 97.1193C232.215 98.4434 231.495 100.171 231.495 102.301C231.495 104.431 232.215 106.158 233.654 107.482C235.151 108.806 237.281 109.468 240.044 109.468C241.714 109.468 243.239 109.181 244.621 108.605C246.06 107.972 247.24 106.935 248.161 105.496Z" fill="#9DC4FF"/>
<path d="M290.64 118.445C286.552 118.445 283.012 117.754 280.018 116.373C277.082 114.991 274.606 113.149 272.591 110.846C270.634 108.543 269.166 105.953 268.187 103.074C267.209 100.196 266.719 97.2599 266.719 94.2663V92.6255C266.719 89.4592 267.209 86.4367 268.187 83.5583C269.224 80.6222 270.749 78.0315 272.764 75.7863C274.779 73.4835 277.255 71.6701 280.191 70.3459C283.184 68.9643 286.639 68.2734 290.553 68.2734C294.641 68.2734 298.296 69.0794 301.52 70.6914C304.744 72.2458 307.306 74.4334 309.206 77.2543C311.163 80.0753 312.257 83.3568 312.487 87.0988H300.83C300.542 84.6809 299.505 82.6659 297.721 81.054C295.994 79.442 293.604 78.636 290.553 78.636C287.905 78.636 285.689 79.2693 283.904 80.5358C282.177 81.8024 280.882 83.5582 280.018 85.8035C279.154 87.9911 278.723 90.5242 278.723 93.4027C278.723 96.1661 279.126 98.6704 279.932 100.915C280.795 103.161 282.091 104.916 283.818 106.183C285.602 107.449 287.876 108.083 290.64 108.083C292.712 108.083 294.497 107.709 295.994 106.96C297.49 106.212 298.671 105.175 299.534 103.851C300.455 102.527 301.031 101.03 301.261 99.3612H312.919C312.689 103.161 311.566 106.5 309.551 109.378C307.594 112.199 304.975 114.415 301.693 116.027C298.469 117.639 294.785 118.445 290.64 118.445Z" fill="#9DC4FF"/>
<path d="M327.889 115.77C330.71 116.864 334.279 117.411 338.597 117.411H345.333V107.135H337.992C335.69 107.135 333.905 106.53 332.638 105.321C331.43 104.055 330.825 102.27 330.825 99.9669L330.867 78.7236H345.333V69.9154H330.885L330.911 56.7031H319.685L319.658 69.9154H312.172V78.7236H319.64L319.599 99.1897C319.599 103.738 320.29 107.365 321.671 110.071C323.053 112.719 325.126 114.619 327.889 115.77Z" fill="#9DC4FF"/>
<path d="M367.059 118.274C361.647 118.274 357.445 116.489 354.451 112.92C351.515 109.35 350.047 104.054 350.047 97.0299V69.8281H362.05V98.0662C362.05 100.945 362.856 103.248 364.468 104.975C366.08 106.644 368.268 107.479 371.031 107.479C373.795 107.479 376.04 106.587 377.767 104.802C379.552 103.018 380.444 100.6 380.444 97.548V69.8281H392.447V116.806H382.948V105.886C382.707 106.879 382.419 107.814 382.085 108.688C380.876 111.855 379.062 114.244 376.644 115.856C374.227 117.468 371.204 118.274 367.577 118.274H367.059Z" fill="#9DC4FF"/>
<path d="M403.731 114.221C407.415 116.927 412.481 118.28 418.929 118.28C423.074 118.28 426.672 117.646 429.723 116.38C432.775 115.113 435.135 113.357 436.804 111.112C438.532 108.809 439.395 106.104 439.395 102.995C439.395 98.7921 437.812 95.453 434.646 92.9775C431.537 90.502 427.219 88.9764 421.692 88.4007L417.547 87.9689C415.014 87.6811 413.172 87.1342 412.021 86.3282C410.927 85.5222 410.38 84.3708 410.38 82.874C410.38 81.3196 411.071 80.0531 412.452 79.0744C413.834 78.0957 415.791 77.6064 418.325 77.6064C421.145 77.6064 423.304 78.1821 424.801 79.3335C426.298 80.4849 427.104 81.8665 427.219 83.4785H438.013C437.841 78.585 435.97 74.8718 432.4 72.3387C428.831 69.8056 424.168 68.5391 418.411 68.5391C414.726 68.5391 411.445 69.1148 408.566 70.2662C405.746 71.36 403.529 73.0008 401.917 75.1884C400.305 77.3761 399.499 80.0819 399.499 83.3058C399.499 87.3357 400.91 90.5596 403.731 92.9775C406.551 95.3955 410.581 96.8923 415.82 97.468L419.965 97.8998C423.074 98.1876 425.262 98.7921 426.528 99.7132C427.852 100.634 428.514 101.872 428.514 103.427C428.514 105.211 427.651 106.622 425.924 107.658C424.254 108.694 421.98 109.212 419.102 109.212C415.648 109.212 413.114 108.55 411.502 107.226C409.891 105.902 408.998 104.434 408.825 102.822H398.031C398.204 107.658 400.104 111.458 403.731 114.221Z" fill="#9DC4FF"/>
<path fill-rule="evenodd" clip-rule="evenodd" d="M87.8867 35C59.2736 35 36.0781 58.1955 36.0781 86.8086C36.0781 115.422 59.2736 138.617 87.8867 138.617C116.5 138.617 139.695 115.422 139.695 86.8086C139.695 58.1955 116.5 35 87.8867 35ZM47.6953 86.8086C47.6953 64.6115 65.6896 46.6172 87.8867 46.6172C110.084 46.6172 128.078 64.6115 128.078 86.8086C128.078 107.066 113.091 123.823 93.5999 126.597V117.732L103.916 113.923C109.878 111.723 113.837 106.04 113.837 99.6853V82.2295C113.837 79.0215 111.236 76.4209 108.028 76.4209C104.82 76.4209 102.22 79.0215 102.22 82.2295V99.6853C102.22 101.176 101.291 102.509 99.8925 103.025L93.5999 105.348V59.3701C93.5999 56.1621 90.9993 53.5615 87.7913 53.5615C84.5832 53.5615 81.9826 56.1621 81.9826 59.3701V84.293L75.878 82.0395C74.4795 81.5232 73.5508 80.1903 73.5508 78.6996V71.1747C73.5508 67.9667 70.9502 65.3661 67.7422 65.3661C64.5342 65.3661 61.9336 67.9667 61.9336 71.1747V78.6996C61.9336 85.0547 65.8929 90.7369 71.8548 92.9378L81.9826 96.6766V126.569C62.5846 123.714 47.6953 107 47.6953 86.8086Z" fill="#9DC4FF"/>
</svg>
