<svg width="414" height="187" viewBox="0 0 414 187" fill="none" xmlns="http://www.w3.org/2000/svg">
<path d="M82.6497 36.7147C85.7438 34.9284 89.5557 34.9284 92.6497 36.7147L133.618 60.3675L105.29 76.9549C100.905 72.5526 94.8362 69.8281 88.1317 69.8281C81.1591 69.8281 74.8747 72.7749 70.456 77.4911L41.4453 60.5041L82.6497 36.7147Z" fill="#9DC4FF"/>
<path d="M64.9303 87.076L35.9141 70.0859V117.58L64.8222 100.653C64.2287 98.5534 63.9111 96.3386 63.9111 94.0496C63.9111 91.6254 64.2673 89.2843 64.9303 87.076Z" fill="#9DC4FF"/>
<path d="M70.1933 110.32L41.8984 126.888L82.6469 150.414C85.7409 152.2 89.5529 152.2 92.6469 150.414L133.159 127.024L105.557 110.862C101.153 115.426 94.9723 118.265 88.1289 118.265C81.0184 118.265 74.6236 115.2 70.1933 110.32Z" fill="#9DC4FF"/>
<path d="M111.221 101.361L139.377 117.848C139.378 117.784 139.379 117.72 139.379 117.656V69.8047L111.102 86.3619C111.909 88.7756 112.346 91.3586 112.346 94.0436C112.346 96.5939 111.952 99.0521 111.221 101.361Z" fill="#9DC4FF"/>
<path fill-rule="evenodd" clip-rule="evenodd" d="M172.891 121.297C176.949 123.774 181.825 125.013 187.517 125.013C193.209 125.013 198.084 123.774 202.143 121.297C206.228 118.793 209.35 115.315 211.511 110.861C213.699 106.408 214.792 101.242 214.792 95.3657C214.792 89.489 213.699 84.3239 211.511 79.8702C209.35 75.4166 206.228 71.9512 202.143 69.474C198.084 66.9705 193.209 65.7188 187.517 65.7188C181.825 65.7188 176.949 66.9705 172.891 69.474C168.833 71.9512 165.71 75.4166 163.523 79.8702C161.362 84.3239 160.281 89.489 160.281 95.3657C160.281 101.242 161.362 106.408 163.523 110.861C165.71 115.315 168.833 118.793 172.891 121.297ZM197.044 113.51C194.514 115.223 191.338 116.066 187.517 116.04C183.696 115.987 180.507 115.104 177.951 113.391C175.421 111.678 173.524 109.293 172.259 106.236C170.994 103.153 170.361 99.5295 170.361 95.3657C170.361 91.202 170.994 87.5654 172.259 84.4557C173.55 81.3461 175.46 78.9347 177.99 77.2217C180.52 75.5088 183.696 74.6655 187.517 74.6919C191.338 74.7446 194.514 75.6274 197.044 77.3403C199.6 79.0533 201.51 81.4514 202.775 84.5347C204.067 87.5916 204.712 91.202 204.712 95.3657C204.712 99.5295 204.067 103.166 202.775 106.276C201.51 109.385 199.6 111.797 197.044 113.51Z" fill="#9DC4FF"/>
<path d="M219.5 121.832C219.5 122.936 220.395 123.832 221.5 123.832H227.066C228.171 123.832 229.066 122.936 229.066 121.832V102.13C229.066 100.496 229.264 98.9815 229.659 97.5848C230.054 96.1617 230.66 94.8968 231.477 93.79C232.321 92.6831 233.401 91.774 234.719 91.0624C236.036 90.2718 237.512 89.8107 239.146 89.6789C239.759 89.6302 240.345 89.6157 240.904 89.6353C242.237 89.6821 243.534 88.7013 243.534 87.368V82.8348C243.534 81.8571 242.827 81.0091 241.851 80.9546C241.12 80.9139 240.376 80.9231 239.62 80.9824C238.276 81.0615 236.959 81.3118 235.668 81.7335C234.403 82.1288 233.243 82.6822 232.189 83.3937C230.95 84.158 229.883 85.133 228.987 86.3189C228.597 86.8392 228.241 87.3861 227.92 87.9595V83.1406C227.92 82.036 227.024 81.1406 225.92 81.1406H221.5C220.395 81.1406 219.5 82.036 219.5 83.1406V121.832Z" fill="#9DC4FF"/>
<path fill-rule="evenodd" clip-rule="evenodd" d="M268.431 125.015C264.267 125.015 260.775 124.027 257.955 122.05C257.357 121.631 256.791 121.18 256.256 120.697V121.829C256.256 122.933 255.36 123.829 254.256 123.829H249.836C248.731 123.829 247.836 122.933 247.836 121.829V68.9062C247.836 67.8017 248.731 66.9062 249.836 66.9062H255.441C256.546 66.9062 257.441 67.8017 257.441 68.9062V83.2054C257.572 83.1071 257.703 83.0104 257.837 82.9156C260.604 80.9391 264.016 79.951 268.075 79.951C272.107 79.951 275.599 80.9391 278.55 82.9156C281.528 84.8657 283.834 87.5405 285.468 90.94C287.102 94.3132 287.919 98.1608 287.919 102.483C287.919 106.752 287.115 110.587 285.507 113.986C283.9 117.386 281.633 120.074 278.708 122.05C275.783 124.027 272.357 125.015 268.431 125.015ZM257.323 95.1697C256.611 97.2516 256.256 99.6893 256.256 102.483C256.256 105.25 256.611 107.688 257.323 109.796C258.061 111.904 259.207 113.551 260.762 114.737C262.343 115.897 264.412 116.476 266.968 116.476C269.445 116.476 271.488 115.857 273.095 114.619C274.703 113.38 275.888 111.707 276.653 109.598C277.443 107.464 277.839 105.092 277.839 102.483C277.839 99.9001 277.443 97.5546 276.653 95.4464C275.862 93.3118 274.637 91.6253 272.976 90.3867C271.316 89.1218 269.208 88.4893 266.652 88.4893C264.227 88.4893 262.251 89.0823 260.722 90.2681C259.194 91.4277 258.061 93.0614 257.323 95.1697Z" fill="#9DC4FF"/>
<path d="M294.258 121.832C294.258 122.936 295.153 123.832 296.258 123.832H301.785C302.889 123.832 303.785 122.936 303.785 121.832V83.1406C303.785 82.036 302.889 81.1406 301.785 81.1406H296.258C295.153 81.1406 294.258 82.036 294.258 83.1406V121.832Z" fill="#9DC4FF"/>
<path d="M337.484 122.171C337.484 123.134 336.799 123.966 335.846 124.105C333.591 124.435 331.37 124.568 329.183 124.504C326.495 124.451 324.084 123.964 321.949 123.041C319.815 122.093 318.194 120.604 317.087 118.574C316.112 116.73 315.598 114.846 315.545 112.922C315.493 110.998 315.466 108.824 315.466 106.399V88.6112H309.719C308.614 88.6112 307.719 87.7158 307.719 86.6112V83.1402C307.719 82.0356 308.614 81.1402 309.719 81.1402H315.466V71.2812C315.466 70.1767 316.362 69.2812 317.466 69.2812H322.953C324.058 69.2812 324.953 70.1767 324.953 71.2812V81.1402H335.484C336.589 81.1402 337.484 82.0356 337.484 83.1402V86.6112C337.484 87.7158 336.589 88.6112 335.484 88.6112H324.953V105.846C324.953 107.559 324.967 109.061 324.993 110.352C325.046 111.644 325.322 112.698 325.823 113.515C326.772 115.096 328.287 115.979 330.369 116.163C331.83 116.293 333.435 116.279 335.182 116.123C336.399 116.014 337.484 116.944 337.484 118.166V122.171Z" fill="#9DC4FF"/>
<path d="M348.615 122.092C351.724 124.042 355.479 125.017 359.88 125.017C364.65 125.017 368.682 123.857 371.976 121.538C374.738 119.572 376.805 116.902 378.177 113.529C378.615 112.451 377.927 111.281 376.792 111.028L370.926 109.716C369.928 109.493 368.94 110.07 368.489 110.988C367.805 112.38 366.925 113.498 365.849 114.344C364.4 115.503 362.41 116.083 359.88 116.083C356.296 116.083 353.595 114.831 351.777 112.328C349.959 109.824 349.049 106.543 349.049 102.485C349.049 99.8759 349.431 97.5436 350.196 95.4881C350.96 93.4326 352.146 91.8251 353.753 90.6655C355.361 89.4797 357.403 88.8867 359.88 88.8867C362.068 88.8867 364.018 89.5324 365.731 90.8236C366.975 91.7423 367.962 92.932 368.691 94.3928C369.169 95.3483 370.218 95.9405 371.249 95.6612L377.012 94.1004C378.059 93.8168 378.701 92.745 378.341 91.7216C377.167 88.3809 375.151 85.6835 372.293 83.6293C368.946 81.1785 364.848 79.9531 359.999 79.9531C355.677 79.9531 351.948 80.9281 348.812 82.8782C345.676 84.802 343.252 87.4637 341.539 90.8632C339.852 94.2364 338.996 98.1102 338.969 102.485C338.996 106.781 339.826 110.628 341.46 114.028C343.12 117.427 345.505 120.115 348.615 122.092Z" fill="#9DC4FF"/>
<path d="M294.035 69.6321L296.718 66.949C297.889 65.7774 299.789 65.7774 300.96 66.949L303.643 69.6321C304.815 70.8037 304.815 72.7032 303.643 73.8748L300.96 76.5578C299.789 77.7294 297.889 77.7294 296.718 76.5578L294.035 73.8748C292.863 72.7032 292.863 70.8037 294.035 69.6321Z" fill="#9DC4FF"/>
</svg>
