<svg width="422" height="172" viewBox="0 0 422 172" fill="none" xmlns="http://www.w3.org/2000/svg">
<path d="M160.726 118.762C153.295 118.762 147.5 116.706 143.339 112.595C139.228 108.484 137.172 102.614 137.172 94.9857V65.8594H149.209V94.5399C149.209 103.852 153.073 108.509 160.8 108.509C164.565 108.509 167.438 107.394 169.419 105.165C171.4 102.886 172.391 99.3447 172.391 94.5399V65.8594H184.279V94.9857C184.279 102.614 182.199 108.484 178.038 112.595C173.927 116.706 168.156 118.762 160.726 118.762Z" fill="#9DC4FF"/>
<path d="M190.148 92.3125H211.176V101.6H190.148V92.3125Z" fill="#9DC4FF"/>
<path d="M225.488 75.6672H208.844V65.8594H254.169V75.6672H237.525V117.871H225.488V75.6672Z" fill="#9DC4FF"/>
<path d="M295.517 77.8984V117.873H284.521V113.117C282.985 114.851 281.152 116.188 279.022 117.13C276.892 118.021 274.589 118.467 272.112 118.467C266.862 118.467 262.701 116.956 259.63 113.935C256.559 110.913 255.023 106.43 255.023 100.486V77.8984H266.614V98.7772C266.614 105.216 269.314 108.436 274.713 108.436C277.487 108.436 279.716 107.545 281.4 105.761C283.084 103.929 283.926 101.229 283.926 97.6627V77.8984H295.517Z" fill="#9DC4FF"/>
<path d="M313.61 83.1745C314.997 81.2427 316.854 79.7814 319.182 78.7907C321.56 77.8 324.284 77.3047 327.355 77.3047V88.0041C326.068 87.9051 325.201 87.8555 324.755 87.8555C321.436 87.8555 318.836 88.7967 316.953 90.679C315.071 92.5118 314.13 95.2857 314.13 99.0008V117.874H302.539V77.8991H313.61V83.1745Z" fill="#9DC4FF"/>
<path d="M354.828 77.3047C359.782 77.3047 363.769 78.7907 366.791 81.7628C369.862 84.7348 371.397 89.1434 371.397 94.9885V117.874H359.806V96.7717C359.806 93.6015 359.113 91.2486 357.726 89.7131C356.339 88.128 354.333 87.3354 351.707 87.3354C348.785 87.3354 346.457 88.2518 344.723 90.0846C342.989 91.8678 342.122 94.5427 342.122 98.1092V117.874H330.531V77.8991H341.602V82.5801C343.138 80.8959 345.045 79.608 347.324 78.7164C349.602 77.7753 352.104 77.3047 354.828 77.3047Z" fill="#9DC4FF"/>
<path fill-rule="evenodd" clip-rule="evenodd" d="M85.3874 52.3419C87.3641 50.3652 90.5689 50.3652 92.5456 52.3419L111.056 70.8525L92.4614 88.6021C90.4393 90.5323 87.2354 90.4578 85.3052 88.4357C83.375 86.4136 83.4495 83.2097 85.4716 81.2795L91.1807 75.8299H78.8433C68.9661 75.8299 60.959 83.837 60.959 93.7142C60.959 103.591 68.9661 111.598 78.8433 111.598H103.814C106.609 111.598 108.876 113.865 108.876 116.66C108.876 119.455 106.609 121.722 103.814 121.722H78.8433C63.3752 121.722 50.8359 109.182 50.8359 93.7142C50.8359 78.2461 63.3752 65.7067 78.8433 65.7067H91.5941L85.3874 59.5001C83.4108 57.5234 83.4108 54.3186 85.3874 52.3419Z" fill="#9DC4FF"/>
</svg>
