<svg width="447" height="184" viewBox="0 0 447 184" fill="none" xmlns="http://www.w3.org/2000/svg">
<path d="M178.298 120.502C172.673 120.502 167.758 119.223 163.554 116.667C159.349 114.11 156.082 110.559 153.753 106.013C151.423 101.411 150.258 96.07 150.258 89.9904C150.258 83.854 151.451 78.4562 153.838 73.797C156.281 69.0811 159.719 65.4163 164.15 62.8026C168.639 60.1321 173.952 58.7969 180.088 58.7969C187.077 58.7969 192.872 60.473 197.475 63.8253C202.077 67.1776 205.06 71.8084 206.424 77.7175H194.236C193.327 74.9334 191.679 72.7743 189.293 71.2402C186.906 69.6493 183.838 68.8538 180.088 68.8538C174.122 68.8538 169.52 70.7572 166.281 74.5641C163.042 78.3141 161.423 83.4846 161.423 90.0756C161.423 96.6666 163.014 101.78 166.196 105.416C169.435 108.996 173.81 110.786 179.321 110.786C184.719 110.786 188.781 109.337 191.509 106.439C194.293 103.485 195.969 99.6212 196.537 94.8484H181.452V86.6665H207.532V119.479H197.475L196.622 111.638C194.691 114.479 192.276 116.667 189.378 118.201C186.48 119.735 182.787 120.502 178.298 120.502Z" fill="#9DC4FF"/>
<path d="M213.625 119.481V58.1172H224.534V119.481H213.625Z" fill="#9DC4FF"/>
<path d="M251.703 120.499C247.612 120.499 243.919 119.561 240.623 117.686C237.385 115.811 234.8 113.226 232.868 109.931C230.993 106.578 230.055 102.715 230.055 98.3391C230.055 93.964 231.021 90.1288 232.953 86.8333C234.885 83.481 237.47 80.8673 240.709 78.9923C244.004 77.1172 247.697 76.1797 251.788 76.1797C255.822 76.1797 259.459 77.1172 262.698 78.9923C265.993 80.8673 268.578 83.481 270.453 86.8333C272.385 90.1288 273.351 93.964 273.351 98.3391C273.351 102.715 272.385 106.578 270.453 109.931C268.578 113.226 265.993 115.811 262.698 117.686C259.402 119.561 255.737 120.499 251.703 120.499ZM251.703 111.038C254.544 111.038 257.016 109.987 259.118 107.885C261.22 105.726 262.271 102.544 262.271 98.3391C262.271 94.1345 261.22 90.981 259.118 88.8787C257.016 86.7196 254.572 85.6401 251.788 85.6401C248.891 85.6401 246.391 86.7196 244.288 88.8787C242.243 90.981 241.22 94.1345 241.22 98.3391C241.22 102.544 242.243 105.726 244.288 107.885C246.391 109.987 248.862 111.038 251.703 111.038Z" fill="#9DC4FF"/>
<path d="M296.311 120.499C292.561 120.499 289.266 119.902 286.425 118.709C283.584 117.459 281.311 115.754 279.607 113.595C277.902 111.436 276.879 108.936 276.539 106.095H287.533C287.874 107.743 288.783 109.163 290.26 110.357C291.794 111.493 293.755 112.061 296.141 112.061C298.527 112.061 300.26 111.578 301.34 110.612C302.476 109.646 303.045 108.538 303.045 107.288C303.045 105.47 302.249 104.249 300.658 103.624C299.067 102.942 296.851 102.288 294.01 101.663C292.192 101.266 290.345 100.783 288.47 100.214C286.595 99.6459 284.862 98.9357 283.272 98.0834C281.737 97.1743 280.487 96.0379 279.522 94.6743C278.556 93.2538 278.073 91.5208 278.073 89.4753C278.073 85.7253 279.55 82.5719 282.504 80.015C285.516 77.4582 289.72 76.1797 295.118 76.1797C300.118 76.1797 304.096 77.3445 307.05 79.6741C310.062 82.0037 311.851 85.2139 312.42 89.3049H302.107C301.482 86.1798 299.124 84.6173 295.033 84.6173C292.988 84.6173 291.397 85.0151 290.26 85.8105C289.181 86.606 288.641 87.6003 288.641 88.7935C288.641 90.0435 289.465 91.0379 291.113 91.7765C292.76 92.5151 294.948 93.197 297.675 93.822C300.63 94.5038 303.329 95.2709 305.772 96.1231C308.272 96.9186 310.26 98.1402 311.738 99.788C313.215 101.379 313.954 103.68 313.954 106.692C314.011 109.306 313.329 111.663 311.908 113.766C310.488 115.868 308.442 117.516 305.772 118.709C303.101 119.902 299.948 120.499 296.311 120.499Z" fill="#9DC4FF"/>
<path d="M336.828 120.499C333.078 120.499 329.783 119.902 326.942 118.709C324.101 117.459 321.828 115.754 320.123 113.595C318.419 111.436 317.396 108.936 317.055 106.095H328.05C328.391 107.743 329.3 109.163 330.777 110.357C332.311 111.493 334.271 112.061 336.658 112.061C339.044 112.061 340.777 111.578 341.857 110.612C342.993 109.646 343.561 108.538 343.561 107.288C343.561 105.47 342.766 104.249 341.175 103.624C339.584 102.942 337.368 102.288 334.527 101.663C332.709 101.266 330.862 100.783 328.987 100.214C327.112 99.6459 325.379 98.9357 323.788 98.0834C322.254 97.1743 321.004 96.0379 320.038 94.6743C319.072 93.2538 318.589 91.5208 318.589 89.4753C318.589 85.7253 320.067 82.5719 323.021 80.015C326.033 77.4582 330.237 76.1797 335.635 76.1797C340.635 76.1797 344.612 77.3445 347.567 79.6741C350.578 82.0037 352.368 85.2139 352.936 89.3049H342.624C341.999 86.1798 339.641 84.6173 335.55 84.6173C333.504 84.6173 331.913 85.0151 330.777 85.8105C329.697 86.606 329.158 87.6003 329.158 88.7935C329.158 90.0435 329.981 91.0379 331.629 91.7765C333.277 92.5151 335.464 93.197 338.192 93.822C341.146 94.5038 343.845 95.2709 346.288 96.1231C348.789 96.9186 350.777 98.1402 352.254 99.788C353.732 101.379 354.47 103.68 354.47 106.692C354.527 109.306 353.845 111.663 352.425 113.766C351.004 115.868 348.959 117.516 346.288 118.709C343.618 119.902 340.465 120.499 336.828 120.499Z" fill="#9DC4FF"/>
<path d="M362.916 138.226L372.717 116.664H370.16L353.711 77.2031H365.558L377.405 106.948L389.763 77.2031H401.354L374.507 138.226H362.916Z" fill="#9DC4FF"/>
<path d="M69.9617 112.649L112.962 69.6492L105.891 62.5781L62.8906 105.578L69.9617 112.649Z" fill="#9DC4FF"/>
<path d="M86.9617 69.6492L69.9617 86.6492L62.8906 79.5781L79.8906 62.5781L86.9617 69.6492Z" fill="#9DC4FF"/>
<path d="M95.9617 112.649L112.962 95.6492L105.891 88.5781L88.8906 105.578L95.9617 112.649Z" fill="#9DC4FF"/>
<path fill-rule="evenodd" clip-rule="evenodd" d="M46.4297 129.117V45.1172H130.43V129.117H46.4297ZM56.4297 55.1172H120.43V119.117H56.4297V55.1172Z" fill="#9DC4FF"/>
</svg>
