<svg width="476" height="184" viewBox="0 0 476 184" fill="none" xmlns="http://www.w3.org/2000/svg">
<path fill-rule="evenodd" clip-rule="evenodd" d="M91.8747 53.1971C86.7755 51.0864 81.3101 50 75.7907 50H50.8203V134H75.7907C81.3101 134 86.7755 132.914 91.8747 130.803C96.974 128.692 101.607 125.599 105.51 121.698C109.413 117.798 112.509 113.168 114.621 108.073C116.733 102.977 117.82 97.5155 117.82 92C117.82 86.4845 116.733 81.023 114.621 75.9273C112.509 70.8316 109.413 66.2016 105.51 62.3015C101.607 58.4015 96.974 55.3078 91.8747 53.1971ZM72.5773 70.2586H88.8947V83.6435L102.148 83.564L102.245 99.6845L88.8947 99.7646V113.247H72.5773V99.8625L59.4118 99.9415L59.315 83.8209L72.5773 83.7414V70.2586Z" fill="#9DC4FF"/>
<path d="M392.194 65H403.72V86.1309H424.85V97.6568H403.72V118.788H392.194V97.6569H371.062V86.1309H392.194V65Z" fill="#9DC4FF"/>
<path fill-rule="evenodd" clip-rule="evenodd" d="M164.998 69.2755C160.923 67.1648 156.186 66.1094 150.787 66.1094H132.82V117.505H150.787C156.186 117.505 160.923 116.45 164.998 114.339C169.121 112.228 172.287 109.258 174.496 105.429C176.754 101.551 177.883 97.0349 177.883 91.8807C177.883 86.7264 176.754 82.2103 174.496 78.3323C172.287 74.4053 169.121 71.3863 164.998 69.2755ZM162.936 104.325C159.991 107.27 155.818 108.743 150.418 108.743H143.129V74.798H150.418C155.818 74.798 159.991 76.3197 162.936 79.3632C165.881 82.3576 167.354 86.5301 167.354 91.8807C167.354 97.2313 165.881 101.38 162.936 104.325Z" fill="#9DC4FF"/>
<path fill-rule="evenodd" clip-rule="evenodd" d="M190.166 115.596C193.308 117.314 196.842 118.173 200.769 118.173C204.745 118.173 208.329 117.314 211.519 115.596C214.759 113.828 217.312 111.349 219.177 108.159C221.092 104.968 222.049 101.286 222.049 97.1136C222.049 92.9411 221.116 89.2595 219.251 86.0687C217.435 82.878 214.931 80.4236 211.74 78.7055C208.55 76.9383 204.991 76.0547 201.064 76.0547C197.137 76.0547 193.578 76.9383 190.387 78.7055C187.196 80.4236 184.668 82.878 182.803 86.0687C180.987 89.2595 180.078 92.9411 180.078 97.1136C180.078 101.286 180.962 104.968 182.729 108.159C184.545 111.349 187.024 113.828 190.166 115.596ZM205.997 107.864C204.377 108.748 202.634 109.19 200.769 109.19C197.824 109.19 195.369 108.159 193.406 106.097C191.491 103.986 190.534 100.992 190.534 97.1136C190.534 93.2356 191.516 90.2658 193.479 88.2041C195.492 86.0933 197.971 85.0379 200.916 85.0379C203.862 85.0379 206.341 86.0933 208.353 88.2041C210.415 90.2658 211.446 93.2356 211.446 97.1136C211.446 99.7153 210.955 101.925 209.973 103.741C208.991 105.557 207.666 106.932 205.997 107.864Z" fill="#9DC4FF"/>
<path d="M224.008 97.1136C224.008 92.892 224.867 89.2104 226.586 86.0687C228.304 82.878 230.684 80.4236 233.728 78.7055C236.771 76.9383 240.257 76.0547 244.184 76.0547C249.24 76.0547 253.412 77.331 256.701 79.8836C260.039 82.3871 262.273 85.9215 263.402 90.4867H252.283C251.694 88.7195 250.688 87.345 249.264 86.3633C247.89 85.3324 246.172 84.817 244.11 84.817C241.165 84.817 238.833 85.8969 237.115 88.0568C235.397 90.1676 234.538 93.1865 234.538 97.1136C234.538 100.992 235.397 104.011 237.115 106.171C238.833 108.281 241.165 109.337 244.11 109.337C248.283 109.337 251.007 107.471 252.283 103.741H263.402C262.273 108.159 260.039 111.669 256.701 114.27C253.363 116.872 249.191 118.173 244.184 118.173C240.257 118.173 236.771 117.314 233.728 115.596C230.684 113.828 228.304 111.374 226.586 108.232C224.867 105.042 224.008 101.335 224.008 97.1136Z" fill="#9DC4FF"/>
<path d="M280.014 104.914V85.1803H289.145V76.7126H280.014V66.625H269.632V76.7126H264.773V85.1803H269.632V104.84C269.632 113.283 273.977 117.505 282.665 117.505H289.145V108.816H284.359C282.788 108.816 281.659 108.522 280.972 107.933C280.334 107.295 280.014 106.288 280.014 104.914Z" fill="#9DC4FF"/>
<path fill-rule="evenodd" clip-rule="evenodd" d="M311.73 118.173C307.802 118.173 304.268 117.314 301.126 115.596C297.985 113.828 295.506 111.349 293.69 108.159C291.922 104.968 291.039 101.286 291.039 97.1136C291.039 92.9411 291.947 89.2595 293.763 86.0687C295.629 82.878 298.157 80.4236 301.347 78.7055C304.538 76.9383 308.097 76.0547 312.024 76.0547C315.951 76.0547 319.51 76.9383 322.701 78.7055C325.892 80.4236 328.395 82.878 330.211 86.0687C332.077 89.2595 333.009 92.9411 333.009 97.1136C333.009 101.286 332.052 104.968 330.138 108.159C328.272 111.349 325.72 113.828 322.48 115.596C319.289 117.314 315.706 118.173 311.73 118.173ZM311.73 109.19C313.595 109.19 315.338 108.748 316.957 107.864C318.626 106.932 319.952 105.557 320.934 103.741C321.915 101.925 322.406 99.7153 322.406 97.1136C322.406 93.2356 321.375 90.2658 319.314 88.2041C317.301 86.0933 314.822 85.0379 311.877 85.0379C308.932 85.0379 306.453 86.0933 304.44 88.2041C302.476 90.2658 301.495 93.2356 301.495 97.1136C301.495 100.992 302.452 103.986 304.366 106.097C306.33 108.159 308.784 109.19 311.73 109.19Z" fill="#9DC4FF"/>
<path d="M353.087 77.9658C350.977 79.193 349.259 80.8865 347.933 83.0464V76.714H337.625V117.506H347.933V97.1838C347.933 93.404 348.743 90.7533 350.363 89.2315C352.032 87.7098 354.487 86.9489 357.726 86.9489H360.451V76.125C357.702 76.125 355.247 76.7386 353.087 77.9658Z" fill="#9DC4FF"/>
</svg>
