<svg width="679" height="230" viewBox="0 0 679 230" fill="none" xmlns="http://www.w3.org/2000/svg">
<path d="M206.773 157.467L213.258 155.846V86.6797L206.773 85.0586V83.4375H235.953C246.904 83.4375 254.938 85.2027 260.053 88.7331C265.241 92.1914 267.834 96.7304 267.834 102.35C267.834 106.241 266.717 109.375 264.484 111.752C262.251 114.13 259.405 115.895 255.946 117.048C252.272 118.345 248.309 119.029 244.058 119.101V119.642C249.318 119.858 253.893 120.65 257.784 122.019C261.746 123.316 265.024 125.334 267.618 128.071C270.284 130.809 271.617 134.304 271.617 138.554C271.617 144.967 268.987 150.01 263.727 153.685C258.468 157.287 249.93 159.088 238.114 159.088H206.773V157.467ZM235.953 118.021C238.331 118.021 240.528 117.372 242.545 116.075C244.635 114.706 246.292 112.833 247.517 110.456C248.814 108.006 249.462 105.304 249.462 102.35C249.462 99.1801 248.814 96.3702 247.517 93.9205C246.292 91.4709 244.635 89.5616 242.545 88.1927C240.528 86.8238 238.331 86.1393 235.953 86.1393H231.09V118.021H235.953ZM238.114 156.386C242.581 156.386 246.22 154.801 249.03 151.631C251.84 148.461 253.244 144.102 253.244 138.554C253.244 133.007 251.84 128.648 249.03 125.478C246.22 122.308 242.581 120.722 238.114 120.722H231.09V156.386H238.114Z" fill="#9DC4FF"/>
<path d="M273.742 157.467L280.227 155.846V86.6797L273.742 85.0586V83.4375H287.792C294.276 83.4375 297.518 86.6797 297.518 93.164V155.846L304.003 157.467V159.088H273.742V157.467Z" fill="#9DC4FF"/>
<path d="M333.709 160.708C324.775 160.708 317.75 158.187 312.635 153.143C307.591 148.028 305.07 141.003 305.07 132.069C305.07 123.135 307.591 116.146 312.635 111.103C317.75 105.988 324.775 103.43 333.709 103.43C342.643 103.43 349.631 105.988 354.675 111.103C359.79 116.146 362.348 123.135 362.348 132.069C362.348 141.003 359.79 148.028 354.675 153.143C349.631 158.187 342.643 160.708 333.709 160.708ZM333.709 158.547C336.591 158.547 339.004 156.529 340.95 152.495C342.967 148.46 343.976 141.651 343.976 132.069C343.976 122.487 342.967 115.678 340.95 111.643C339.004 107.609 336.591 105.591 333.709 105.591C330.827 105.591 328.377 107.609 326.36 111.643C324.414 115.678 323.442 122.487 323.442 132.069C323.442 141.651 324.414 148.46 326.36 152.495C328.377 156.529 330.827 158.547 333.709 158.547Z" fill="#9DC4FF"/>
<path d="M391.029 160.708C386.562 160.708 382.563 159.736 379.033 157.79C377.304 156.854 375.899 155.845 374.818 154.764C373.665 156.349 372.405 157.574 371.036 158.439C370.387 158.871 369.667 159.267 368.874 159.628H366.172V141.255H370.495C371.432 144.281 372.801 147.091 374.602 149.685C378.421 155.233 383.176 158.006 388.868 158.006C391.894 158.006 394.163 157.286 395.676 155.845C397.261 154.332 398.054 152.171 398.054 149.361C398.054 146.983 396.973 145.002 394.812 143.417C392.722 141.76 389.408 139.742 384.869 137.365C380.978 135.419 377.808 133.69 375.359 132.177C372.981 130.592 370.928 128.647 369.198 126.341C367.541 123.964 366.713 121.19 366.713 118.02C366.713 113.697 368.55 110.202 372.224 107.537C375.971 104.799 381.699 103.43 389.408 103.43C393.226 103.43 396.757 104.439 399.999 106.456C401.584 107.393 402.953 108.365 404.106 109.374C405.042 108.077 406.303 106.852 407.888 105.699C409.113 104.979 409.834 104.583 410.05 104.511H412.752V122.883H408.429C407.348 119.785 406.015 117.011 404.43 114.561C400.828 108.942 396.541 106.132 391.569 106.132C389.624 106.132 387.967 106.852 386.598 108.293C385.229 109.734 384.545 111.535 384.545 113.697C384.545 116.435 385.697 118.74 388.003 120.613C390.309 122.415 393.803 124.504 398.486 126.882C402.305 128.827 405.331 130.556 407.564 132.069C409.87 133.51 411.815 135.311 413.4 137.473C415.057 139.634 415.886 142.156 415.886 145.038C415.886 155.485 407.6 160.708 391.029 160.708Z" fill="#9DC4FF"/>
<path d="M443.99 160.708C439.523 160.708 435.524 159.736 431.994 157.79C430.264 156.854 428.86 155.845 427.779 154.764C426.626 156.349 425.365 157.574 423.996 158.439C423.348 158.871 422.627 159.267 421.835 159.628H419.133V141.255H423.456C424.393 144.281 425.761 147.091 427.563 149.685C431.381 155.233 436.136 158.006 441.828 158.006C444.854 158.006 447.124 157.286 448.637 155.845C450.222 154.332 451.014 152.171 451.014 149.361C451.014 146.983 449.934 145.002 447.772 143.417C445.683 141.76 442.369 139.742 437.83 137.365C433.939 135.419 430.769 133.69 428.319 132.177C425.942 130.592 423.888 128.647 422.159 126.341C420.502 123.964 419.673 121.19 419.673 118.02C419.673 113.697 421.511 110.202 425.185 107.537C428.932 104.799 434.659 103.43 442.369 103.43C446.187 103.43 449.717 104.439 452.96 106.456C454.545 107.393 455.914 108.365 457.066 109.374C458.003 108.077 459.264 106.852 460.849 105.699C462.074 104.979 462.794 104.583 463.01 104.511H465.712V122.883H461.389C460.309 119.785 458.976 117.011 457.391 114.561C453.788 108.942 449.501 106.132 444.53 106.132C442.585 106.132 440.928 106.852 439.559 108.293C438.19 109.734 437.505 111.535 437.505 113.697C437.505 116.435 438.658 118.74 440.964 120.613C443.269 122.415 446.764 124.504 451.447 126.882C455.265 128.827 458.291 130.556 460.525 132.069C462.83 133.51 464.776 135.311 466.361 137.473C468.018 139.634 468.846 142.156 468.846 145.038C468.846 155.485 460.561 160.708 443.99 160.708Z" fill="#9DC4FF"/>
<path d="M500.186 160.708C491.252 160.708 484.228 158.187 479.112 153.143C474.069 148.028 471.547 141.003 471.547 132.069C471.547 123.135 474.069 116.146 479.112 111.103C484.228 105.988 491.252 103.43 500.186 103.43C509.12 103.43 516.109 105.988 521.152 111.103C526.268 116.146 528.826 123.135 528.826 132.069C528.826 141.003 526.268 148.028 521.152 153.143C516.109 158.187 509.12 160.708 500.186 160.708ZM500.186 158.547C503.068 158.547 505.482 156.529 507.427 152.495C509.445 148.46 510.453 141.651 510.453 132.069C510.453 122.487 509.445 115.678 507.427 111.643C505.482 107.609 503.068 105.591 500.186 105.591C497.305 105.591 494.855 107.609 492.838 111.643C490.892 115.678 489.92 122.487 489.92 132.069C489.92 141.651 490.892 148.46 492.838 152.495C494.855 156.529 497.305 158.547 500.186 158.547Z" fill="#9DC4FF"/>
<path d="M532.109 157.466L538.593 155.845V108.293L532.109 106.672V105.051H541.835C546.086 105.051 549.436 106.42 551.886 109.158C552.823 110.238 553.615 111.571 554.264 113.156C555.344 111.139 556.497 109.518 557.722 108.293C560.964 105.051 564.675 103.43 568.853 103.43C573.032 103.43 576.707 104.367 579.877 106.24C583.047 108.041 585.496 110.527 587.226 113.697C588.306 111.607 589.459 109.914 590.684 108.617C593.998 105.159 597.709 103.43 601.815 103.43C605.634 103.43 609.056 104.222 612.082 105.807C615.18 107.393 617.558 109.554 619.215 112.292C620.944 115.03 621.809 118.02 621.809 121.262V155.845L628.293 157.466V159.087H614.244C607.759 159.087 604.517 155.845 604.517 149.361V121.262C604.517 116.579 603.797 113.084 602.356 110.779C600.915 108.401 599.294 107.212 597.493 107.212C595.403 107.212 593.278 108.653 591.116 111.535C590.252 112.904 589.495 114.345 588.847 115.858V155.845L595.331 157.466V159.087H565.071V157.466L571.555 155.845V121.262C571.555 116.579 570.835 113.084 569.394 110.779C567.953 108.401 566.332 107.212 564.53 107.212C562.441 107.212 560.316 108.653 558.154 111.535C557.29 112.904 556.533 114.345 555.885 115.858V155.845L562.369 157.466V159.087H532.109V157.466Z" fill="#9DC4FF"/>
<path fill-rule="evenodd" clip-rule="evenodd" d="M118.81 179.724C118.113 179.861 117.39 179.907 116.657 179.851C94.0193 178.133 72.5921 165.629 60.3838 144.484C48.1753 123.338 48.06 98.5288 57.892 78.0646C59.3194 75.0936 62.4137 73.3072 65.7004 73.5566C74.1365 74.1967 82.4045 76.3347 90.09 79.8597C95.8891 68.5522 104.469 58.906 114.927 51.8237C117.656 49.9755 121.226 49.9755 123.955 51.8237C134.271 58.8098 142.759 68.2907 148.554 79.4C155.948 76.1485 163.857 74.1684 171.92 73.5566C175.207 73.3072 178.301 75.0936 179.728 78.0646C189.56 98.5288 189.445 123.338 177.237 144.484C165.028 165.629 143.601 178.133 120.963 179.851C120.23 179.907 119.507 179.861 118.81 179.724ZM135.396 166.905C148.966 162.29 160.968 152.925 168.69 139.55C178.969 121.746 179.304 100.927 171.38 83.5077C164.874 84.1389 158.505 85.803 152.531 88.4304C155.445 96.4473 157.035 105.1 157.035 114.125C157.035 134.692 148.777 153.33 135.396 166.905ZM139.817 83.9888C134.976 74.6947 127.962 66.7081 119.441 60.6992C110.737 66.8368 103.606 75.0377 98.7564 84.5877C106.475 89.5236 113.332 96.0166 118.81 103.928C124.513 95.6924 131.71 88.9939 139.817 83.9888ZM124.401 113.499C129.36 105.041 136.038 98.2064 143.74 93.1858C145.963 99.7597 147.167 106.802 147.167 114.125C147.167 131.031 140.749 146.44 130.198 158.047C133.053 143.385 131.326 127.769 124.401 113.499ZM113.219 113.499C108.484 105.421 102.179 98.8244 94.9129 93.8741C92.8364 100.25 91.7146 107.057 91.7146 114.125C91.7146 130.164 97.491 144.856 107.093 156.231C104.719 142.101 106.579 127.182 113.219 113.499ZM118.81 162.87C122.515 151.089 122.667 138.238 118.81 126.055C114.953 138.238 115.106 151.089 118.81 162.87ZM68.93 139.55C77.003 153.532 89.7538 163.133 104.083 167.505C90.3504 153.882 81.8463 134.996 81.8463 114.125C81.8463 105.284 83.3722 96.7993 86.1749 88.9201C79.8885 86.0091 73.1421 84.1772 66.24 83.5077C58.3164 100.927 58.6511 121.746 68.93 139.55Z" fill="#9DC4FF"/>
</svg>
