<svg width="471" height="183" viewBox="0 0 471 183" fill="none" xmlns="http://www.w3.org/2000/svg">
<path d="M91.3333 40.6641L40.5 101.665H86.25L81.1667 142.331L132 81.3308H86.25L91.3333 40.6641Z" fill="#9DC4FF"/>
<path d="M203.968 83.1851V102.002H176.826V127.775H155.5V51.3672H209.67V70.1842H176.826V83.1851H203.968Z" fill="#9DC4FF"/>
<path d="M239.413 51.3672V127.775H219.797V51.3672H239.413Z" fill="#9DC4FF"/>
<path d="M271.777 67.9062C274.818 67.9062 277.783 68.5905 280.672 69.959C283.638 71.2515 286.07 72.9242 287.971 74.9769V69.6169H307.587V127.778H287.971V118.085C286.527 121.278 284.322 123.977 281.357 126.182C278.392 128.387 274.818 129.489 270.637 129.489C266.303 129.489 262.235 128.387 258.434 126.182C254.633 123.977 251.515 120.594 249.083 116.032C246.726 111.394 245.547 105.578 245.547 98.5837C245.547 92.0452 246.726 86.4951 249.083 81.9334C251.515 77.3717 254.709 73.9124 258.662 71.5555C262.692 69.1226 267.063 67.9062 271.777 67.9062ZM275.883 87.0655C273.07 87.0655 270.713 88.2058 268.812 90.4866C266.987 92.7675 266.075 95.4665 266.075 98.5837C266.075 101.701 267.025 104.324 268.926 106.452C270.827 108.581 273.336 109.646 276.453 109.646C278.125 109.646 279.836 109.227 281.585 108.391C283.333 107.479 284.816 106.148 286.032 104.4C287.325 102.575 287.971 100.256 287.971 97.4434V91.8552C286.299 90.4866 284.398 89.3463 282.269 88.434C280.216 87.5216 278.087 87.0655 275.883 87.0655Z" fill="#9DC4FF"/>
<path d="M338.018 67.9062C341.82 67.9062 345.317 68.4765 348.51 69.6169C351.779 70.6813 354.402 72.1639 356.379 74.0646V89.4604C354.402 88.2438 352.159 87.1034 349.651 86.039C347.142 84.8986 344.443 84.3284 341.553 84.3284C339.729 84.3284 338.094 84.7085 336.65 85.4688C335.281 86.153 334.597 87.2554 334.597 88.776C334.597 89.8404 335.015 90.6388 335.851 91.171C336.688 91.7032 338.322 92.2734 340.755 92.8816L344.29 93.794C354.402 96.379 359.458 101.815 359.458 110.102C359.458 113.903 358.318 117.286 356.037 120.252C353.832 123.141 350.905 125.421 347.256 127.094C343.682 128.691 339.805 129.489 335.623 129.489C331.29 129.489 327.26 128.881 323.535 127.664C319.809 126.372 316.616 124.813 313.955 122.989V107.707C316.692 109.379 319.771 110.786 323.193 111.926C326.69 113.067 329.807 113.637 332.544 113.637C334.749 113.637 336.346 113.371 337.334 112.839C338.398 112.307 338.93 111.356 338.93 109.988C338.93 108.923 338.322 108.125 337.106 107.593C335.889 106.985 334.141 106.3 331.86 105.54L326.044 103.715C321.786 102.423 318.669 100.408 316.692 97.6713C314.715 94.8583 313.727 91.437 313.727 87.4075C313.727 83.378 314.791 79.9187 316.92 77.0296C319.049 74.1405 321.938 71.8977 325.587 70.3011C329.313 68.7045 333.456 67.9062 338.018 67.9062Z" fill="#9DC4FF"/>
<path d="M399.921 67.9035C405.851 67.9035 410.679 69.9182 414.404 73.9477C418.205 77.9772 420.106 83.9455 420.106 91.8525V127.776H400.491L400.377 94.9316C400.377 92.0425 399.578 90.0278 397.982 88.8873C396.385 87.6709 394.599 87.0627 392.622 87.0627C390.493 87.0627 388.706 87.6329 387.262 88.7733C385.817 89.8377 384.563 91.1302 383.498 92.6508V127.776H363.883V51.3672H383.498V77.1409C385.323 74.632 387.528 72.4652 390.113 70.6405C392.774 68.8158 396.043 67.9035 399.921 67.9035Z" fill="#9DC4FF"/>
<path d="M419.115 51.8125V54.2389H416.194V61.6213H413.421V54.2389H410.5V51.8125H419.115Z" fill="#9DC4FF"/>
<path d="M430.501 51.6641V61.6641H427.728V56.8112L425.698 59.0906H424.866L422.836 56.8112V61.6641H420.062V51.6641H421.042L425.283 55.9288L429.522 51.6641H430.501Z" fill="#9DC4FF"/>
</svg>
