<svg width="357" height="122" viewBox="0 0 357 122" fill="none" xmlns="http://www.w3.org/2000/svg">
<path d="M44.5078 79.9453H82.5411V94.8278C82.5411 98.4809 79.5797 101.442 75.9266 101.442H51.1223C47.4692 101.442 44.5078 98.4809 44.5078 94.8278V79.9453Z" fill="#9DC4FF"/>
<path fill-rule="evenodd" clip-rule="evenodd" d="M54.4103 21.5504C45.3541 23.394 37.3743 28.1982 31.5254 34.9084C31.5256 34.9085 31.5252 34.9082 31.5254 34.9084C25.1944 42.1716 21.3594 51.6674 21.3594 62.0592V63.5017C21.3598 63.5011 21.3601 63.5005 21.3604 63.4999V65.0157C21.3604 65.3414 21.3604 65.5043 21.3637 65.642C21.5107 71.8191 26.4833 76.7916 32.6603 76.9386C32.798 76.9419 32.9609 76.9418 33.2865 76.9418H92.1154C92.441 76.9418 92.6039 76.9419 92.7416 76.9386C98.9186 76.7916 103.891 71.8191 104.038 65.642C104.041 65.5043 104.041 65.3414 104.041 65.0157V62.0593C104.041 39.2275 85.5327 20.7188 62.7009 20.7188C59.8618 20.7188 57.0885 21.0052 54.4103 21.5504ZM54.2051 24.9785C52.9728 31.9553 46.8803 37.2549 39.55 37.2549C37.8191 37.2549 36.1573 36.9593 34.6122 36.4161C39.7412 30.8011 46.5314 26.7294 54.2051 24.9785ZM74.7115 25.9613C76.3174 32.4469 82.1765 37.2549 89.1584 37.2549C89.9168 37.2549 90.6619 37.1981 91.3897 37.0887C86.9732 32.0188 81.2348 28.1307 74.7115 25.9613ZM100.624 59.1379C98.004 56.8386 94.5701 55.4446 90.8106 55.4446C82.5912 55.4446 75.9281 62.1077 75.9281 70.3271C75.9281 71.4639 76.0555 72.571 76.2969 73.6347H92.1154C92.4601 73.6347 92.5744 73.6343 92.6629 73.6322C97.075 73.5272 100.627 69.9754 100.732 65.5632C100.734 65.4748 100.734 65.3604 100.734 65.0157V62.0593C100.734 61.0763 100.697 60.1021 100.624 59.1379ZM49.1018 73.6347C49.3432 72.571 49.4707 71.4639 49.4707 70.3271C49.4707 62.1077 42.8075 55.4446 34.5881 55.4446C30.8302 55.4446 27.3976 56.8373 24.7784 59.1348C24.705 60.1 24.6677 61.0753 24.6677 62.0592V65.0157C24.6677 65.3604 24.6679 65.4748 24.67 65.5632C24.775 69.9754 28.3269 73.5272 32.739 73.6322C32.8275 73.6343 32.9418 73.6347 33.2865 73.6347H49.1018ZM77.5828 48.8302C77.5828 57.0497 70.9197 63.7128 62.7002 63.7128C54.4808 63.7128 47.8177 57.0497 47.8177 48.8302C47.8177 40.6108 54.4808 33.9477 62.7002 33.9477C70.9197 33.9477 77.5828 40.6108 77.5828 48.8302Z" fill="#9DC4FF"/>
<path d="M128.758 82.7173V34.0078H137.417V82.7173H128.758Z" fill="#9DC4FF"/>
<path d="M159.184 83.5306C155.801 83.5306 152.802 82.809 150.186 81.3657C147.57 79.9225 145.518 77.8929 144.03 75.2771C142.542 72.6612 141.797 69.6394 141.797 66.2117C141.797 62.7389 142.519 59.6494 143.962 56.9434C145.451 54.2373 147.48 52.1401 150.051 50.6517C152.667 49.1183 155.734 48.3516 159.252 48.3516C162.544 48.3516 165.453 49.0732 167.979 50.5164C170.504 51.9597 172.466 53.9441 173.865 56.4698C175.308 58.9504 176.029 61.7241 176.029 64.791C176.029 65.2871 176.007 65.8058 175.962 66.347C175.962 66.8882 175.939 67.452 175.894 68.0383H150.389C150.57 70.6542 151.472 72.7063 153.095 74.1946C154.764 75.683 156.771 76.4271 159.116 76.4271C160.875 76.4271 162.341 76.0438 163.514 75.2771C164.731 74.4652 165.634 73.4279 166.22 72.1651H175.015C174.383 74.2848 173.323 76.2242 171.835 77.9831C170.392 79.697 168.588 81.05 166.423 82.0423C164.303 83.0345 161.89 83.5306 159.184 83.5306ZM159.252 55.3874C157.132 55.3874 155.26 55.9962 153.637 57.214C152.013 58.3866 150.976 60.1907 150.525 62.6261H167.235C167.099 60.4162 166.287 58.6572 164.799 57.3493C163.311 56.0413 161.462 55.3874 159.252 55.3874Z" fill="#9DC4FF"/>
<path d="M187.672 82.7195L175.359 49.1641H184.425L192.949 74.5336L201.473 49.1641H210.538L198.158 82.7195H187.672Z" fill="#9DC4FF"/>
<path d="M227.27 83.5306C223.887 83.5306 220.888 82.809 218.272 81.3657C215.656 79.9225 213.604 77.8929 212.116 75.2771C210.628 72.6612 209.883 69.6394 209.883 66.2117C209.883 62.7389 210.605 59.6494 212.048 56.9434C213.537 54.2373 215.566 52.1401 218.137 50.6517C220.753 49.1183 223.82 48.3516 227.338 48.3516C230.63 48.3516 233.539 49.0732 236.065 50.5164C238.59 51.9597 240.552 53.9441 241.951 56.4698C243.394 58.9504 244.115 61.7241 244.115 64.791C244.115 65.2871 244.093 65.8058 244.048 66.347C244.048 66.8882 244.025 67.452 243.98 68.0383H218.475C218.656 70.6542 219.558 72.7063 221.181 74.1946C222.85 75.683 224.857 76.4271 227.202 76.4271C228.961 76.4271 230.427 76.0438 231.6 75.2771C232.818 74.4652 233.72 73.4279 234.306 72.1651H243.101C242.469 74.2848 241.409 76.2242 239.921 77.9831C238.478 79.697 236.674 81.05 234.509 82.0423C232.389 83.0345 229.976 83.5306 227.27 83.5306ZM227.338 55.3874C225.218 55.3874 223.346 55.9962 221.723 57.214C220.099 58.3866 219.062 60.1907 218.611 62.6261H235.321C235.185 60.4162 234.374 58.6572 232.885 57.3493C231.397 56.0413 229.548 55.3874 227.338 55.3874Z" fill="#9DC4FF"/>
<path d="M248.016 82.7173V34.0078H256.675V82.7173H248.016Z" fill="#9DC4FF"/>
<path d="M274.726 83.5313C270.532 83.5313 267.285 82.2234 264.984 79.6075C262.729 76.9916 261.602 73.158 261.602 68.1066V49.1641H270.194V67.2948C270.194 70.1813 270.78 72.3913 271.952 73.9247C273.125 75.4582 274.974 76.2249 277.5 76.2249C279.89 76.2249 281.852 75.368 283.386 73.6541C284.964 71.9403 285.753 69.5499 285.753 66.483V49.1641H294.413V82.7195H286.768L286.092 77.0367C285.054 79.0212 283.544 80.5997 281.559 81.7723C279.62 82.945 277.342 83.5313 274.726 83.5313Z" fill="#9DC4FF"/>
<path d="M299.922 97.6022V49.1634H307.634L308.581 53.9667C309.664 52.4783 311.084 51.1704 312.843 50.0429C314.647 48.9153 316.97 48.3516 319.811 48.3516C322.968 48.3516 325.787 49.1183 328.268 50.6517C330.748 52.1852 332.71 54.2824 334.154 56.9434C335.597 59.6043 336.318 62.6261 336.318 66.0087C336.318 69.3913 335.597 72.4131 334.154 75.0741C332.71 77.69 330.748 79.7646 328.268 81.2981C325.787 82.7864 322.968 83.5306 319.811 83.5306C317.286 83.5306 315.076 83.057 313.181 82.1099C311.287 81.1628 309.754 79.8323 308.581 78.1184V97.6022H299.922ZM317.985 75.9536C320.736 75.9536 323.014 75.029 324.818 73.1798C326.622 71.3307 327.524 68.9403 327.524 66.0087C327.524 63.0771 326.622 60.6642 324.818 58.77C323.014 56.8757 320.736 55.9286 317.985 55.9286C315.189 55.9286 312.888 56.8757 311.084 58.77C309.325 60.6191 308.446 63.0095 308.446 65.9411C308.446 68.8727 309.325 71.2856 311.084 73.1798C312.888 75.029 315.189 75.9536 317.985 75.9536Z" fill="#9DC4FF"/>
</svg>
