<svg width="321" height="133" viewBox="0 0 321 133" fill="none" xmlns="http://www.w3.org/2000/svg">
<path d="M121.529 94.3276C116.736 94.3276 112.621 93.4804 109.184 91.7861C105.747 90.0917 102.939 87.8891 100.761 85.1781C98.6305 82.4672 97.0572 79.5142 96.0406 76.3191C95.0239 73.124 94.5156 70.05 94.5156 67.097V65.4995C94.5156 62.2076 95.0239 58.9641 96.0406 55.7691C97.1056 52.574 98.7273 49.6694 100.906 47.0553C103.085 44.4411 105.844 42.3595 109.184 40.8104C112.573 39.2129 116.567 38.4141 121.166 38.4141C125.958 38.4141 130.122 39.2855 133.655 41.0282C137.238 42.7226 140.094 45.1431 142.224 48.2897C144.354 51.388 145.637 55.0187 146.073 59.182H135.689C135.301 56.7615 134.43 54.7283 133.075 53.0823C131.768 51.388 130.097 50.1293 128.064 49.3063C126.031 48.435 123.731 47.9993 121.166 47.9993C118.552 47.9993 116.228 48.4592 114.195 49.379C112.161 50.2503 110.467 51.509 109.112 53.1549C107.756 54.8009 106.715 56.7373 105.989 58.9641C105.311 61.191 104.973 63.6599 104.973 66.3709C104.973 68.985 105.311 71.4055 105.989 73.6324C106.715 75.8592 107.78 77.8198 109.184 79.5142C110.588 81.1601 112.307 82.443 114.34 83.3628C116.422 84.2825 118.818 84.7424 121.529 84.7424C125.498 84.7424 128.839 83.7742 131.55 81.8378C134.309 79.853 135.979 77.0937 136.56 73.5597H146.944C146.46 77.3357 145.177 80.797 143.095 83.9437C141.014 87.0903 138.158 89.6076 134.527 91.4956C130.896 93.3836 126.563 94.3276 121.529 94.3276Z" fill="#9DC4FF"/>
<path d="M151.219 92.9479V38.4141H161.312V60.2164C162.321 57.732 163.749 55.8139 165.597 54.462C167.63 53.0097 170.196 52.2836 173.294 52.2836H173.729C178.232 52.2836 181.644 53.8327 183.968 56.9309C186.292 60.0292 187.454 64.5313 187.454 70.4373V92.9479H177.36V69.4933C177.36 66.976 176.634 64.9912 175.182 63.5389C173.778 62.0866 171.914 61.3604 169.59 61.3604C167.121 61.3604 165.112 62.1834 163.563 63.8293C162.063 65.4269 161.312 67.5327 161.312 70.1468V92.9479H151.219Z" fill="#9DC4FF"/>
<path fill-rule="evenodd" clip-rule="evenodd" d="M218.568 85.3549V92.9483H226.555V68.4771C226.555 64.7979 225.853 61.8207 224.449 59.5455C223.094 57.2702 221.061 55.6 218.35 54.535C215.687 53.47 212.323 52.9375 208.256 52.9375C206.949 52.9375 205.545 52.9617 204.045 53.0101C202.592 53.0101 201.164 53.0585 199.76 53.1553C198.356 53.2522 197.098 53.349 195.984 53.4458V62.0144C197.34 61.9175 198.865 61.8449 200.559 61.7965C202.302 61.6997 204.02 61.6271 205.715 61.5787C207.409 61.5303 208.861 61.5061 210.072 61.5061C212.395 61.5061 214.114 62.0628 215.227 63.1762C216.341 64.2896 216.897 65.984 216.897 68.2592V68.6223H208.837C205.352 68.6223 202.302 69.0822 199.688 70.002C197.122 70.9218 195.113 72.3015 193.661 74.1411C192.257 75.9806 191.555 78.3527 191.555 81.2573C191.555 83.9199 192.136 86.1951 193.298 88.0831C194.508 89.9711 196.178 91.4234 198.308 92.44C200.487 93.4566 203.004 93.9649 205.86 93.9649C208.619 93.9649 210.943 93.4808 212.831 92.5126C214.767 91.496 216.268 90.0437 217.333 88.1557C217.832 87.3096 218.244 86.376 218.568 85.3549ZM216.897 78.3527V74.6494H208.692C206.368 74.6494 204.577 75.2303 203.318 76.3921C202.108 77.5055 201.503 78.9578 201.503 80.749C201.503 82.5402 202.108 83.9925 203.318 85.1059C204.577 86.2193 206.368 86.7761 208.692 86.7761C210.096 86.7761 211.379 86.534 212.541 86.0499C213.751 85.5174 214.743 84.646 215.518 83.4358C216.341 82.1771 216.801 80.4828 216.897 78.3527Z" fill="#9DC4FF"/>
<path d="M235.617 92.9483V52.9375H245.711V92.9483H235.617Z" fill="#9DC4FF"/>
<path d="M253.719 52.9426V92.9534H263.813V69.7893C263.813 67.2235 264.563 65.1903 266.064 63.6896C267.613 62.1405 269.622 61.3659 272.091 61.3659C274.512 61.3659 276.4 62.1163 277.755 63.617C279.159 65.1177 279.861 67.0783 279.861 69.4988V92.9534H289.954V70.3702C289.954 64.3673 288.744 59.8652 286.324 56.8638C283.903 53.814 280.345 52.2891 275.649 52.2891H275.214C272.067 52.2891 269.429 52.9668 267.298 54.3223C265.217 55.6778 263.644 57.711 262.579 60.4219C262.232 61.2894 261.941 62.2288 261.707 63.2401V52.9426H253.719Z" fill="#9DC4FF"/>
<path d="M31.1094 76.2526C31.1094 79.7957 33.9823 82.6693 37.5261 82.6693C41.0699 82.6693 43.9428 79.7957 43.9428 76.2526C43.9428 73.6548 40.1761 71.2109 40.1761 66.6276C40.1761 62.5026 43.9428 59.6004 43.9428 57.0026C43.9428 53.4595 41.0699 50.5859 37.5261 50.5859C33.9823 50.5859 31.1094 53.4595 31.1094 57.0026C31.1094 59.6004 34.8762 62.5026 34.8761 66.6276C34.8761 70.7526 31.1094 73.6548 31.1094 76.2526Z" fill="#9DC4FF"/>
<path d="M62.2734 36.8308C62.2734 33.2876 65.1462 30.4141 68.69 30.4141C72.2338 30.4141 75.1067 33.2876 75.1067 36.8308C75.1067 37.9465 74.4118 39.0339 73.619 40.2746C72.5659 41.9226 71.34 43.841 71.34 46.4558C71.34 48.7556 72.5109 50.6754 73.547 52.3742C74.3693 53.7223 75.1067 54.9313 75.1067 56.0808C75.1067 56.2348 75.1013 56.3877 75.0906 56.539C75.1013 56.6904 75.1067 56.8432 75.1067 56.9973C75.1067 58.113 74.4118 59.2004 73.619 60.4411C72.5659 62.089 71.34 64.0075 71.34 66.6223C71.34 68.9221 72.5109 70.8419 73.547 72.5407C74.3693 73.8888 75.1067 75.0979 75.1067 76.2473C75.1067 76.4014 75.1013 76.5542 75.0906 76.7056C75.1013 76.857 75.1067 77.0098 75.1067 77.1639C75.1067 78.3134 74.3693 79.5224 73.547 80.8705C72.5109 82.5693 71.34 84.4891 71.34 86.7889C71.34 89.4037 72.5659 91.3222 73.619 92.9701C74.4118 94.2108 75.1067 95.2982 75.1067 96.4139C75.1067 99.9571 72.2338 102.831 68.69 102.831C65.1462 102.831 62.2734 99.9571 62.2734 96.4139C62.2734 95.2645 63.0108 94.0555 63.833 92.7074C64.8692 91.0086 66.0401 89.0888 66.0401 86.7889C66.0401 84.4891 64.8692 82.5693 63.833 80.8705C63.0108 79.5224 62.2734 78.3134 62.2734 77.1639C62.2734 77.0099 62.2788 76.857 62.2895 76.7057C62.2788 76.5542 62.2734 76.4014 62.2734 76.2473C62.2734 75.0979 63.0108 73.8888 63.833 72.5407C64.8692 70.8419 66.0401 68.9221 66.0401 66.6223C66.0401 64.3224 64.8692 62.4027 63.833 60.7038C63.0108 59.3557 62.2734 58.1467 62.2734 56.9973C62.2734 56.8432 62.2788 56.6904 62.2895 56.539C62.2788 56.3877 62.2734 56.2349 62.2734 56.0808C62.2734 54.9313 63.0108 53.7223 63.833 52.3742C64.8692 50.6754 66.0401 48.7556 66.0401 46.4558C66.0401 44.1559 64.8692 42.2362 63.833 40.5373C63.0108 39.1892 62.2734 37.9802 62.2734 36.8308Z" fill="#9DC4FF"/>
<path d="M53.1041 92.75C49.5603 92.75 46.6875 89.8765 46.6875 86.3333C46.6875 85.1839 47.4249 83.9749 48.2471 82.6267C49.2833 80.9279 50.4542 79.0082 50.4542 76.7083C50.4542 74.4085 49.2833 72.4887 48.2471 70.7899C47.4249 69.4418 46.6875 68.2327 46.6875 67.0833C46.6875 66.9292 46.6929 66.7764 46.7036 66.625C46.6929 66.4736 46.6875 66.3208 46.6875 66.1667C46.6875 65.0172 47.4249 63.8082 48.2471 62.4601C49.2833 60.7613 50.4542 58.8415 50.4542 56.5417C50.4542 54.2418 49.2833 52.322 48.2471 50.6232C47.4249 49.2751 46.6875 48.0661 46.6875 46.9167C46.6875 43.3735 49.5603 40.5 53.1041 40.5C56.6479 40.5 59.5208 43.3735 59.5208 46.9167C59.5208 48.0324 58.826 49.1198 58.0331 50.3605C56.98 52.0084 55.7541 53.9269 55.7541 56.5417C55.7541 58.8415 56.925 60.7613 57.9611 62.4601C58.7834 63.8082 59.5208 65.0172 59.5208 66.1667C59.5208 66.3207 59.5154 66.4736 59.5047 66.6249C59.5154 66.7763 59.5208 66.9292 59.5208 67.0833C59.5208 68.2327 58.7834 69.4418 57.9611 70.7899C56.925 72.4887 55.7541 74.4085 55.7541 76.7083C55.7541 79.3231 56.98 81.2415 58.0331 82.8895C58.826 84.1302 59.5208 85.2176 59.5208 86.3333C59.5208 89.8765 56.6479 92.75 53.1041 92.75Z" fill="#9DC4FF"/>
</svg>
