<svg width="1372" height="263" viewBox="0 0 1372 263" fill="none" xmlns="http://www.w3.org/2000/svg">
<path d="M1267.29 51.7257C1267.29 21.5878 1288.9 1.40625 1319.37 1.40625C1349.97 1.40625 1371.59 21.5878 1371.59 51.7257C1371.59 81.729 1349.97 101.911 1319.37 101.911C1288.9 101.911 1267.29 81.729 1267.29 51.7257ZM1276.01 51.7257C1276.01 77.0199 1293.46 93.9725 1319.37 93.9725C1345.41 93.9725 1362.86 77.0199 1362.86 51.7257C1362.86 26.2969 1345.41 9.34434 1319.37 9.34434C1293.46 9.34434 1276.01 26.2969 1276.01 51.7257ZM1292.93 51.7257C1292.93 35.1768 1303.8 24.4133 1320.58 24.4133C1334.94 24.4133 1344.61 33.0241 1345.14 44.5948H1331.05C1329.97 38.944 1325.41 36.3877 1320.18 36.3877C1311.99 36.3877 1307.69 42.4421 1307.69 51.7257C1307.69 61.951 1312.66 66.9291 1320.04 66.9291C1326.35 66.9291 1330.51 63.7001 1331.18 58.4529H1345.28C1344.74 70.6964 1334.54 78.9035 1320.04 78.9035C1303.67 78.9035 1292.93 68.14 1292.93 51.7257Z" fill="#1B2D73"/>
<path d="M0 259.303V3.16224H82.9208L135.625 170.761H137.733L189.734 3.16224H273.006V259.303H219.951V158.112L220.654 60.4338H218.194L158.112 259.303H115.246L55.1634 60.4338H52.3526L53.4066 158.814V259.303H0Z" fill="#1B2D73"/>
<path d="M420.083 262.466C342.784 262.466 291.486 214.329 291.486 131.057C291.486 47.7849 342.784 0 420.083 0C497.734 0 548.681 48.1362 548.681 131.057C548.681 214.681 497.382 262.466 420.083 262.466ZM420.083 215.735C464.354 215.735 492.463 187.275 492.463 131.057C492.463 74.8396 464.003 46.7308 420.083 46.7308C376.163 46.7308 348.054 74.8396 348.054 131.057C348.054 187.626 376.163 215.735 420.083 215.735Z" fill="#1B2D73"/>
<path d="M689.51 262.466C612.211 262.466 560.913 214.329 560.913 131.057C560.913 47.7849 612.211 0 689.51 0C767.161 0 818.108 48.1362 818.108 131.057C818.108 214.681 766.81 262.466 689.51 262.466ZM689.51 215.735C733.782 215.735 761.891 187.275 761.891 131.057C761.891 74.8396 733.43 46.7308 689.51 46.7308C645.591 46.7308 617.482 74.8396 617.482 131.057C617.482 187.626 645.591 215.735 689.51 215.735Z" fill="#1B2D73"/>
<path d="M833.34 259.303V3.16224H959.829C1019.56 3.16224 1049.07 29.5142 1049.07 76.5964C1049.07 107.165 1032.21 131.057 1004.8 137.733V140.192C1030.45 145.111 1042.75 160.923 1042.75 189.734V229.789C1042.75 239.276 1042.75 249.465 1047.32 259.303H992.154C988.992 252.979 987.938 242.438 987.938 229.789V199.221C987.938 177.437 979.856 165.139 948.937 165.139H888.152V259.303H833.34ZM888.152 121.57H951.748C981.613 121.57 993.208 105.759 993.208 83.9749C993.208 58.3257 976.343 48.4876 951.748 48.4876H888.152V121.57Z" fill="#1B2D73"/>
<path d="M1069.94 259.303V3.16224H1256.16V49.893H1124.76V107.165H1238.95V151.085H1124.76V212.572H1256.87V259.303H1069.94Z" fill="#1B2D73"/>
</svg>
