<svg width="1372" height="263" viewBox="0 0 1372 263" fill="none" xmlns="http://www.w3.org/2000/svg">
<path d="M1267.7 51.7257C1267.7 21.5878 1289.31 1.40625 1319.78 1.40625C1350.39 1.40625 1372 21.5878 1372 51.7257C1372 81.729 1350.39 101.911 1319.78 101.911C1289.31 101.911 1267.7 81.729 1267.7 51.7257ZM1276.43 51.7257C1276.43 77.0199 1293.88 93.9725 1319.78 93.9725C1345.83 93.9725 1363.28 77.0199 1363.28 51.7257C1363.28 26.2969 1345.83 9.34434 1319.78 9.34434C1293.88 9.34434 1276.43 26.2969 1276.43 51.7257ZM1293.34 51.7257C1293.34 35.1768 1304.21 24.4133 1320.99 24.4133C1335.36 24.4133 1345.02 33.0241 1345.56 44.5948H1331.46C1330.39 38.944 1325.82 36.3877 1320.59 36.3877C1312.4 36.3877 1308.11 42.4421 1308.11 51.7257C1308.11 61.951 1313.07 66.9291 1320.46 66.9291C1326.76 66.9291 1330.93 63.7001 1331.6 58.4529H1345.69C1345.15 70.6964 1334.95 78.9035 1320.46 78.9035C1304.08 78.9035 1293.34 68.14 1293.34 51.7257Z" fill="#FAF8F2"/>
<path d="M0.414062 259.303V3.16224H83.3349L136.039 170.761H138.147L190.148 3.16224H273.42V259.303H220.365V158.112L221.068 60.4338H218.608L158.526 259.303H115.66L55.5775 60.4338H52.7666L53.8207 158.814V259.303H0.414062Z" fill="#FAF8F2"/>
<path d="M420.497 262.466C343.198 262.466 291.9 214.329 291.9 131.057C291.9 47.7849 343.198 0 420.497 0C498.148 0 549.095 48.1362 549.095 131.057C549.095 214.681 497.796 262.466 420.497 262.466ZM420.497 215.735C464.768 215.735 492.877 187.275 492.877 131.057C492.877 74.8396 464.417 46.7308 420.497 46.7308C376.577 46.7308 348.469 74.8396 348.469 131.057C348.469 187.626 376.577 215.735 420.497 215.735Z" fill="#FAF8F2"/>
<path d="M689.925 262.466C612.625 262.466 561.327 214.329 561.327 131.057C561.327 47.7849 612.625 0 689.925 0C767.575 0 818.522 48.1362 818.522 131.057C818.522 214.681 767.224 262.466 689.925 262.466ZM689.925 215.735C734.196 215.735 762.305 187.275 762.305 131.057C762.305 74.8396 733.844 46.7308 689.925 46.7308C646.005 46.7308 617.896 74.8396 617.896 131.057C617.896 187.626 646.005 215.735 689.925 215.735Z" fill="#FAF8F2"/>
<path d="M833.754 259.303V3.16224H960.243C1019.97 3.16224 1049.49 29.5142 1049.49 76.5964C1049.49 107.165 1032.62 131.057 1005.22 137.733V140.192C1030.87 145.111 1043.16 160.923 1043.16 189.734V229.789C1043.16 239.276 1043.16 249.465 1047.73 259.303H992.568C989.406 252.979 988.352 242.438 988.352 229.789V199.221C988.352 177.437 980.27 165.139 949.351 165.139H888.566V259.303H833.754ZM888.566 121.57H952.162C982.027 121.57 993.622 105.759 993.622 83.9749C993.622 58.3257 976.757 48.4876 952.162 48.4876H888.566V121.57Z" fill="#FAF8F2"/>
<path d="M1070.36 259.303V3.16224H1256.58V49.893H1125.17V107.165H1239.36V151.085H1125.17V212.572H1257.28V259.303H1070.36Z" fill="#FAF8F2"/>
</svg>
